<mxfile host="65bd71144e">
    <diagram id="VREguZ7mHD2CCWupsH--" name="Page-1">
        <mxGraphModel dx="739" dy="515" grid="1" gridSize="10" guides="1" tooltips="1" connect="1" arrows="1" fold="1" page="1" pageScale="1" pageWidth="1169" pageHeight="827" math="0" shadow="0">
            <root>
                <mxCell id="0"/>
                <mxCell id="1" parent="0"/>
                <mxCell id="33" value="" style="rounded=0;whiteSpace=wrap;html=1;" parent="1" vertex="1">
                    <mxGeometry x="280" y="40" width="490" height="450" as="geometry"/>
                </mxCell>
                <mxCell id="57" value="" style="rounded=1;whiteSpace=wrap;html=1;dashed=1;" parent="1" vertex="1">
                    <mxGeometry x="318" y="80" width="242" height="230" as="geometry"/>
                </mxCell>
                <mxCell id="18" style="edgeStyle=none;html=1;entryX=0;entryY=0.5;entryDx=0;entryDy=0;entryPerimeter=0;" parent="1" source="2" target="16" edge="1">
                    <mxGeometry relative="1" as="geometry"/>
                </mxCell>
                <mxCell id="2" value="Users" style="sketch=0;outlineConnect=0;gradientColor=none;fontColor=#545B64;strokeColor=none;fillColor=#879196;dashed=0;verticalLabelPosition=bottom;verticalAlign=top;align=center;html=1;fontSize=12;fontStyle=0;aspect=fixed;shape=mxgraph.aws4.illustration_users;pointerEvents=1" parent="1" vertex="1">
                    <mxGeometry x="12" y="126.5" width="40" height="40" as="geometry"/>
                </mxCell>
                <mxCell id="3" value="" style="sketch=0;points=[[0,0,0],[0.25,0,0],[0.5,0,0],[0.75,0,0],[1,0,0],[0,1,0],[0.25,1,0],[0.5,1,0],[0.75,1,0],[1,1,0],[0,0.25,0],[0,0.5,0],[0,0.75,0],[1,0.25,0],[1,0.5,0],[1,0.75,0]];outlineConnect=0;fontColor=#232F3E;gradientColor=#F78E04;gradientDirection=north;fillColor=#D05C17;strokeColor=#ffffff;dashed=0;verticalLabelPosition=bottom;verticalAlign=top;align=center;html=1;fontSize=12;fontStyle=0;aspect=fixed;shape=mxgraph.aws4.resourceIcon;resIcon=mxgraph.aws4.eks;" parent="1" vertex="1">
                    <mxGeometry x="280" y="40" width="38" height="38" as="geometry"/>
                </mxCell>
                <mxCell id="10" value="" style="rounded=0;whiteSpace=wrap;html=1;fillColor=#b0e3e6;strokeColor=#0e8088;" parent="1" vertex="1">
                    <mxGeometry x="343" y="190" width="190" height="70" as="geometry"/>
                </mxCell>
                <mxCell id="27" style="edgeStyle=none;html=1;entryX=0.5;entryY=1;entryDx=0;entryDy=0;entryPerimeter=0;dashed=1;" parent="1" source="11" target="16" edge="1">
                    <mxGeometry relative="1" as="geometry">
                        <Array as="points">
                            <mxPoint x="175" y="225"/>
                        </Array>
                    </mxGeometry>
                </mxCell>
                <mxCell id="22" style="edgeStyle=none;html=1;entryX=0.5;entryY=0;entryDx=0;entryDy=0;" parent="1" source="15" target="10" edge="1">
                    <mxGeometry relative="1" as="geometry">
                        <Array as="points">
                            <mxPoint x="438" y="147"/>
                        </Array>
                    </mxGeometry>
                </mxCell>
                <mxCell id="15" value="" style="sketch=0;points=[[0,0,0],[0.25,0,0],[0.5,0,0],[0.75,0,0],[1,0,0],[0,1,0],[0.25,1,0],[0.5,1,0],[0.75,1,0],[1,1,0],[0,0.25,0],[0,0.5,0],[0,0.75,0],[1,0.25,0],[1,0.5,0],[1,0.75,0]];gradientDirection=north;outlineConnect=0;fontColor=#232F3E;gradientColor=#505863;fillColor=#1E262E;strokeColor=#ffffff;dashed=0;verticalLabelPosition=bottom;verticalAlign=top;align=center;html=1;fontSize=12;fontStyle=0;aspect=fixed;shape=mxgraph.aws4.resourceIcon;resIcon=mxgraph.aws4.general;" parent="1" vertex="1">
                    <mxGeometry x="353" y="130" width="33" height="33" as="geometry"/>
                </mxCell>
                <mxCell id="17" style="edgeStyle=none;html=1;" parent="1" source="16" target="15" edge="1">
                    <mxGeometry relative="1" as="geometry"/>
                </mxCell>
                <mxCell id="16" value="" style="verticalLabelPosition=bottom;html=1;verticalAlign=top;align=center;strokeColor=none;fillColor=#00BEF2;shape=mxgraph.azure.git_repository;" parent="1" vertex="1">
                    <mxGeometry x="150" y="121.5" width="50" height="50" as="geometry"/>
                </mxCell>
                <mxCell id="19" value="Code Change" style="text;html=1;align=center;verticalAlign=middle;resizable=0;points=[];autosize=1;strokeColor=none;fillColor=none;" parent="1" vertex="1">
                    <mxGeometry x="60" y="151.5" width="90" height="20" as="geometry"/>
                </mxCell>
                <mxCell id="20" value="Webhook" style="text;html=1;align=center;verticalAlign=middle;resizable=0;points=[];autosize=1;strokeColor=none;fillColor=none;" parent="1" vertex="1">
                    <mxGeometry x="205" y="151.5" width="70" height="20" as="geometry"/>
                </mxCell>
                <mxCell id="21" value="Event Listner" style="text;html=1;align=center;verticalAlign=middle;resizable=0;points=[];autosize=1;strokeColor=none;fillColor=none;" parent="1" vertex="1">
                    <mxGeometry x="324.5" y="163" width="90" height="20" as="geometry"/>
                </mxCell>
                <mxCell id="23" value="Manifest&lt;br&gt;Repository" style="text;html=1;align=center;verticalAlign=middle;resizable=0;points=[];autosize=1;strokeColor=none;fillColor=none;" parent="1" vertex="1">
                    <mxGeometry x="135" y="80" width="80" height="40" as="geometry"/>
                </mxCell>
                <mxCell id="24" value="" style="sketch=0;points=[[0,0,0],[0.25,0,0],[0.5,0,0],[0.75,0,0],[1,0,0],[0,1,0],[0.25,1,0],[0.5,1,0],[0.75,1,0],[1,1,0],[0,0.25,0],[0,0.5,0],[0,0.75,0],[1,0.25,0],[1,0.5,0],[1,0.75,0]];gradientDirection=north;outlineConnect=0;fontColor=#232F3E;gradientColor=#505863;fillColor=#1E262E;strokeColor=#ffffff;dashed=0;verticalLabelPosition=bottom;verticalAlign=top;align=center;html=1;fontSize=12;fontStyle=0;aspect=fixed;shape=mxgraph.aws4.resourceIcon;resIcon=mxgraph.aws4.general;" parent="1" vertex="1">
                    <mxGeometry x="359.5" y="215" width="20" height="20" as="geometry"/>
                </mxCell>
                <mxCell id="11" value="1. argocd-sync" style="rounded=0;whiteSpace=wrap;html=1;" parent="1" vertex="1">
                    <mxGeometry x="353" y="210" width="170" height="30" as="geometry"/>
                </mxCell>
                <mxCell id="61" value="" style="rounded=1;whiteSpace=wrap;html=1;dashed=1;" parent="1" vertex="1">
                    <mxGeometry x="582" y="80" width="150" height="230" as="geometry"/>
                </mxCell>
                <mxCell id="34" value="" style="shape=image;verticalLabelPosition=bottom;labelBackgroundColor=#ffffff;verticalAlign=top;aspect=fixed;imageAspect=0;image=data:image/png,iVBORw0KGgoAAAANSUhEUgAAAR8AAACwCAMAAAABtJrwAAABuVBMVEX///8rM4zwUVrhT16QQnJXOoHlT13oUFzsU19eO39TOYJbOoCmd7Q3NYkgKYjASmb8+fq6SWjcTl/dW3GWQ3GGQXXYTWDhWWzFZ47mVmbIS2RuPXuNQnN1PnnnUFy5SWhANoeCQHZ/g7SdRG9lPH17P3jPTGKhRW4dJ4jbXHTkV2lGN4UwNIsUIIasR2vTTWGoRmytc6vNY4U5QJPs5++zcKSxs9DOYoPTYH25bZ3IZou9a5j88fMOHIWxcab87O5eLnZJLX1ma6fPt8g6IHu1hrfy0diwZJzr4O3xkZjdP1G/X4zsw83mm6npP0zPjqzoxdLGOFaeM2KxOF7srLOHLWfHepCibJC+PFxQJXZvLXC8la2+W3ZvRYLMzeCSSHaMY5B6L22RlL6hpMfTt8dJT5ne3+wADoK9v9dYXaCfh6rMs9P5y871nKHfpLfVeZTgbnufa67Flbq7mcXaaXnUpsDScI7lr73ugYjPmLbehZK+fKfcxdrzlZvAgarWaHrCa4PJhJf0ub6pX4KkMl+5bYrDobfwbXWnkLCTcJmhZ4x3XpRwWZKGVYZrVJCDcaGCD1kzDXRdBWVhmdWUAAAdZUlEQVR4nO2diVsTV9fAJ2xKUsKwiAW07BiWINUptW1oEohjiIQlIZgEiOxbkdr2tVBeWlYxiMDb7y/+zrnLbBmsPi9LJt93nkfNMsHMz7Pfc6+CcNUiXuGPFq/wh1+LiD99gfL0t+3gpd6Kd21s891XXxUVVYetjEj84pcvqPzyy9dPfwpezk+VX70bGsq7dQvw5OeH7nou56fehDz9QpGvifx04c145cH14b2fQbbC6xuy98LrXt0GOLcJHcCTX57/+mq++zVI8BcDnh9/fPariRIFN4a/f/To0bcoT1Da2mratsbkzCvlTYCTp+IpLy+vCplcZw2hzucXDZ4fv/nm2V96QvL6l8+/B6GAnjxhgNraKh5WhPW3Lr9DOEiH4Qnll1dVlYev854uU4h5/RZ8+gunA3i++e67Z39J/ApxHuB8SekY8LRVVFTcrarYVyzSu0noEDy3CJ12OQx8qv51M3f3X4tItGcb9AgB/frTj8++IXy+++6HNyTqeN48f/7llwblaWNSgXzutpe3hwkhcQC8DsGTN1T0ahPxDAjCWqiq6uFDi4YwCS3rF7SmbdSebSH467Nn3xE+P/wwIgiEDsPz7be/hzcGZfnJE1ke3AjvVDy8S6S9vb2oaEwQ9m9ROnl5Q5trwn4I8OzDD/aEAM/ohc48u2WbuGfyrx8E23q2jRrzjOL54fnwD0iH2Na34xvM0YhP2pg9efe3qsqBTnt1dfWt6tdDt28jn6GhVwBjfwjwkE+IDx8+bB0dvJn7+2+F8PmaPpbQM6MqiW9+oELoAJ5H44OqfXgUPihrA/n5gKe66Dalkzf0Ci+VQxyPIOw8bG0d3bi2W7pUwfD19VP2JAiu5xnxy54/ngOeLxmedZ1x6PmAFoXzb+VzPEOb5FpvqEjBI2wBn1aLBrDfMK7/xp8FwbL+zR7+m9MZ1tIZ3BDENuAzprUXMXzrFsXzjjF5V0R9D5Ew8tm6yru4OvkNo/qvytNtAPSGPpwnxvX8Z73u1IzKYluFRy6v0uvQ5hDRnjH69FUoPzSmvDn2sLXGqnye6vkIf4BnJjrwB8VjdKsbWwLyEbfGDG+s0cA1QB6D89lU3xobramp2bmKb3/1YtAfQcDABQ52mIT1n82isgf4mLwsbmI9OgRcPFhyafKdDeTz+yV/8WuSDD5B4PMHxfN83fQjnrYLyvFXQ1BThF4LA6FyXb0VbgU+FrWvX7GoeKp95Q3mPQTPBSHZU3FRu2JtCGqK0Guo13U0tgBPfO9yvu91y0+YNf9b9xIL7M9HzK7fqfKIwMdr3rGQh1jBrnsV+JTGzXUx62WbFKS64ij4/GI8YkWVF355vKF204IK08Ly8vw13Ys7NaWlcYvmh8FnwOeZpH3J+9wscDHxeAXP3XaP4L2gnloLgfbk61oeYrwU+Fi0AeTBeh2rLlV++IjvIR+5W/6Rdul+CNsZWuWSCR+L1qciafe80byCic/3wx/7yEf5CH/mAx+tf95APnX/3de8OfmVdHvU5zLxPubXeuX9sfDWZnv1wKtXY2sX9Z8rsJ2hMc/d0tKy0vHL+8bXK9uk26O2U4lvNuk/eze2Ku5WVbWTdkZ+UdGtW3l5tzfH5Ew37a3ChobyuideWlYWtah7RgeEfBQD20DryojFcrjtIe0VYjeMtDNowT40dPvPDM87VtXaOqrU64PxMuBjUfcD8hdphrEnImmGGa4Y3GnlrVQDHlpzVa8ZPrAD9brSMJwE9ambvNp7uEqZRzw821nHVqFhQeJJRdtH8GAj3khIHm1VCgoZ1KfOuuaFBoadQppCe56D+uhcqbhV0/YRPHwZJ/RaF9K2gA+L6OOApy5q4fVTYZh0UonSbBjVx/tEs05xt/0CPPlYsOs+BhV7nHggbxzw1Fk2eqEESSv1LT5E56O9F7ntE/FA0hzSZtyk5MIQNo54ohZNnpn8hXzQA8mPvv/+W829fA6eqqqQxgl5R2nJJUcBT93utd/SpQooEGY9HmEYrEvTx/J+Fp6qqlEN2knImSFoTdZZX33AA5FG/LDw6PtH36qRRlSXkA148szwQFL4UHXDg5AVxj3rRH0s7X1QvHSNdBhXkNVb3MrEU6THU6TH09qqNplFyHrKdpFOl4VzQy4bz/n8wc/Ka4Nm2nP7o3i0q4DjpeiZAc+hRTtjOvmZDyAoQUjU48nMCr/6KgNPa82oon6DUYqny8KpsyqeRxTPE8UWwiqeDM+cd0sdDSOemePRtOHFMorn0PrWhTLChnv4c2+Fiqe62hQPVR7Gh+GpUftguxSPaZvWgrL+LeB5olTd4QqGp/zu5sBme1HRBXG9vKq8amdrq3WU4qmpUYIVxK6uri6LLluYyO84/MTdj8i1p30fs2BxjdAxS3vKx0inZ7CG8IGskHsgOQp4um7kVq5CPGQ2jFvHPi9I+QuearO0B7SHXyDuIB3NQoWH8LFyYaqT4BMcneNdvx2KJx/u3jvwbgASYG+eWVYYggvkrZ0tuECkfNROM+I5vKRx6puXQZwr5MWFh3lmHJoLFRXdGtrHgTAz44IPjrLEZxD78GVlioce7+rqjszf1P1ctmwgHx6d5SpiXKA+3iKSNA95BdEkK6zyQCVKPPMoXBpHPGVR7sP2urq7uydu6n4uW8I4lsqHVsbo3GX167XXrKT4UxA2M/Hs4PAKDVxP5F2Cpy7K8+WNQ+CTM/HrZ+TD/+nDPGlW4vptIJGnyQpJ0lwVxl5zDQtcFE9dHUcyEunufnBwU/dz2fK7jk+7saYYInz0eAgfHtdLOR6FjxzpfvDgwU3dz2ULmfrmjZqx8oyS68/920Y8kDUPhjPwKPYVjACeyE3dzyWLiHhaeejxlpss42TgwbiVgUdtZ3hziY+AzTCFD0T1j5Rc+opUwUPrdXUpxxN50NQUsei+AqN4sFx/qNbaa0VFml6hpmDPD4EAooecjg5PXVStRz2RptzlI3g3Q7e02oN0ikL5r8P7a7IsD45tMdvS4olG9zT1BOETyyE+FVW6Xo134PaQtqYIhQbWNHcryuGauBZPtG5PPysNfCpzhY+I9XqVYaFBXNvMo7tIEc8A3r13LbwFEh7EJ+J6nNApLYsCHOMohxRpqqyMXdcNXLVgO8PIB0XeH6jOwzQR31t7TVwPyOjoDiZLXqI+k+uDJl3CYKQS5Kq/93UJVOx32y/YRII1KgIYCymBC3wPacaLZaWlFzTgjxBPzuTPtKR4PWbWLm4voptNQvq4XkM2MsXLoiYfkY6aEE9BztSnchWpSIuKXu8be1peUB/ywJj2kBcnM4efpKODCMFTGcuZ/o/wuh1rigEIU0Pv9Nu25RCbBh8LafGwTuFemW79WJQnDiKRSOUL1J6C99f29a9c5HwcLBwQZNzcPzSkGS1U+AjhUSUtjMeZs1qPKnw88htkE2kaHhFeIJ4cUh9BeIX7JImj8Y69g7g+lFc9sC97RbCv8rvsGhnSQsgL4/H4OIcyXhcNCh7vyMZ4N7KJHEzgOxMxwJM73gdFJCvsefS+RXlsk+hRKP/u6/LyfMUniZA7jw2quY4INdduV9chSKT7YGKEXjhP8NzLkeSQiTeEJVee4m1FPIHlLjikfNJoNpfBKMLp6n67Pq8e/7JN8OSUdaFAnoOtQkM48nrH8slCBZdBTZrkiXYdrqMRakWmeI6u8KvejPyZRyrSjBzoXxDYVbVS1wAFj9kaoBwrQDwvru573phs0laYsc7AkfjRMaYku6Wlu+x1YlxGK6LGdS+HQrsq4jsKaN/wujza2jpas+EVPYNPsCadHPR65Y1JxGNkOU+0597L3PLNigCg27dv0X3IGvG2QVgfHYXATlupURSg0yUZLqSBPWfxACDcZftVqNqoFxs1o/pOc11X9NA4Fx98SejkMB7wQUPYSi0K/Wm8R7KRS4Ony0hHZMqTk65ZlTG6yza/fExHaIMNaBDTIsM9XbrhJ3GelFyAJzNtFqXt/nQ63Z8ymqMlRQY+OL1S/lBDaHC0FJzP7vrGxuDgxsb6OPgerXMWjypjDE+/4ceJ/ce1PiaJs/TiNd3FFYpnM0SXcaqqtjiCJzWl4zqf5B3v6ubtr+AEbfdA2vPe0B4JriaTtSjNRIp9iZPU1d/BVcvaXb5GOtpKT2ADyzJe1N1Nlv+CR02klUq0x6A8wVMKp5ZpUHFxsaMw8cH6OiSW87FLzHy2NryTGXv856Egleb3mnCdgtG5p1cez2ry/n2GJ51KpXpWzxI+h6PQnkhf461cjYyVK51m0u6BwBXfHfFQhySKHvktzh9EcJGL4ykweOb++4gn6Ts+bvZxvVpctfsLC+3+E8tnAP8ieLa0aQ+u40zujr+d7MJuBo5nPCB4YpXvifboV7tQeQBPWhKmmqfUl8VVO4i/0OqhDGsK3FIhh0fjmrSHBHYcDetmdJpiw9ue9wSP1vl4TonyrILFeRI+jT2lTpCPvcNvcUBh2kv9Ge4vHI8rAwhaPMgnNgH3+QLx3NNaV5AozxQpXoM+xbwE8Txg9/sD/o4OiwMSUX1q4jXxXXyysRuN6pSHaE8kcjAP+iFSPHc0DR+C536SYllU+Yhnfr99LpVqDHR01C9c9z1dpuxjQSrLO/H4JAlK3sHxOlKTEj6kDf92nh52dwCeGfncUT5M8CRrfbT3ISV8PeyNc7//nDipWQAUaLzWO7pcIYOF8OfgZDzO5+68I5A4v0WZOBrh1jFfEIu9CE7cuXNnhreCJILnp1quNgnHCX2QCvjP2TWgQfVu62aKorIFWfCGo5MXtpKl9/8pQA8UjN2508AckERsKyXU1p7SF84dCUqz2G5XQtxZfX2JdS1MBj7qhlLvxrrp4evyX++PGDrQn4YG+vCU4hGOuN9JJRzni/D5xYB/TvnsYqC+3tVj/IlWkTBfYOdics6+GJTUFycaGhpmiJYcg3Ul8UghsbbZB5WEtHrmcNgT9vPUnD+giVmzNgsr0A7g2f2cD/TPAB+k0p9UAlcq0ezrWcWSwoE5s99uP9N8QnSXlFjVA4lYU3zWzlFppqFl5oj6Zu53hJSv2OcoRjx2mhSeaD/SaCtxzl7aV75W8Y7WlMY/60xisaGlpeWYOB+oRrndHTugYHckEsVn9gCojz2wrPlIylXS+fjyvvN1Cm7G+cwzw06Bz6mQTmLB3rxKXzv2AZ7E2TLiWjwPGJJmEfj0WrNOxcnCuOkxovibx+ympoFPEhJDyHqOfbTgWk0gHiVkpaCq8Gtzws7Ozl5rtoK2sCI1oXAQGYFc5z8xk9JpFbMeVJ5pQZxq9n3oX0wTPBoPnMKkWfPREsvyIednZPIZiTRNkMlCkxWKoyTF4wMAninsNfsMeAThQ31HQJMBuTttvZYsUsUyqNdNdvYPN+GOwGCssiCTHePDWhnpqeLiDDygQPX1ncqzFVunzZr+WSw159PUFMF0OWY2u3LEeqn8R0BS6EgY8+OO+npFgRpdNpt7TrCieOOmh6oFI01k4Pu92fDKEYlcSicjDVmhf9V40RwWFXOgfOLyAuBxWlN91hGPCZ/5JjrwPWE2nnFEVip4IxVKLof9Q+aP7igpKXE6VxbcbhuIJb2zZ5IcGlaX6Z+HKytJiT4fu5c5O5cmi1xTzOE0Q85s1iBchKKipNNm64RfTpcVqwtvKT+aJgNBZWUlsatg7F6mA1pF62pupks3aVCfxLLxEpRUp7MTxeZcWrFi7BInAU/Z5F5dV8apfJ7KyhjZ0O6J3ZkxriILx6A9aQZIQus6N17B/oLZx253b6+tz4rKIwjj0bK66K4oRzOPpoG4ztRm5s6djCGEUzAuIQhhHfTm3O4oTFysHVIqtWjNugL3U9RFx8nxIpmjYZUFBVSnXt65c2p4U6xtbobyVMS0ZzEBzsf6S6RmMom+B/4UD7sOjYdDTBQUvKSPVhsaZgxvSr5mkhqiaSUKC+2FFlWQjwseWEj3Cxx2dRn7P++VDRVHM6xXqMoi8CHZYNrvKCws9Fu2c/pR2Svj5/G97ep+a3hT3THQD3wMAawf+BCPK9oLc1Z9hDLlOMe97u5usJb5P96+GGY9eIjqLG0OztBeKogn1X+Ec2EQuphHXvUX2nNTfeQRXCSl//Lzke5u3I5DBxBezmNUV1bYpZkW0mKW0lNsLuz4rLjYR99M+e3AJxf1ZxLxMKvC4yEidAABp1diL7c1WSHwuX8kpKZ1o2EOlvCI2Ej924qVwz/JJC6ws/NFxAiZP4hEICmkGwbe37vDnbLY0nL/eDpJx8LwF5mcYxF9sdDYaM4R8bABhD1C4QAHEA7mJY/Hsz3BFthneErdQpuFydP+oCRKi2nMekivR+w5C5D5nhx0QB6kc4i/3o5AtgPao2RA4lHsHq6QklVUUZIIn+S0EsPEcygoREFaTaDz8ds7cpGPF3cMjOzhaFjkwcgIuGbNgLP4AoqKhpmZmSSKZnqFypTDcbJ4HvDb/YHCuVl/TvLB3UqHOOh9gL4ZPbOuyJqYaWjARa4WZlzaBBGzZgeqTuAcrKzH3xHIQT5iFz8vVX7L5i61b28Dn+npU5TjaWU2g0pPAtdI/f5VAg30Jxf9s7CrjsQH35LjM7RJclCTNPcn9XzOC6Ei9adZ0nNe3xHIxfi+19UdURrLwfeVrF3IX4CkkPM5StYea96SoCINpJWU0N7REcjF/HDksFtbdL2oLNCu4yAf/j9hpZUlZCI9/kLNvO5ioKO+70q/6A2J2N39IKKa1HasIKb5r8GkZIsSso5rtSO7wpldu1TRWFKfi+4ZZLj7wQPNkY4FBfe0C6UaPtPNWj6LicKA2i2VAvX1zlw0r/k9nGmOqG3DiXv3tCvtENg5lCl1x4CAU6l2v/qsr6S+vn5lNtccdLA7wkbilb68BEmzxkNP378/TR+JzWRyjl8GeNR1UFwCrC8pcS5ZeXo3U+RDZT/FgWIcL6DkUi0FJzToI2ymqoqV9tvVqYzlv+sJn5IS18p1fO9rEpFuGIhEmiKx2EuuQcGZOzPqSjKuINN3sJmqfjRgV6aahZ6/A26X2+XsLOnsdFt0eM5M3pDTLt+OQLkenH9RwAbfJ7DkUo/VUCbi+32aHTmgPv5Zpj+zJbPLi5K0OPfY2dlpc1lxAdBciPao5fg8PpzAirSh4ZgDkpJ8/CDtcyjxHNuFUHehrog9ahRrdHd2uqw5nWEiI1iRGv61ecE+08KToGRtLcUyVcx3VIhQs4NAwnxmCOmNTptFp3tMBCJ7xDCycgR4Zk4n+o9Ok0mmLFCV+vBPMVGcoOFL8gf858s95/76jhJjyuy06HyGmaDz0S+3i4iHWtP2aZKyO2JhazlRXEy0RfQHVskDCSfnDCX7rMuWKwZGztrVv9SvCV3i8f8Q2wuyNdITB+vFr/7NHY4IMd0Qz1NumzNHciAJ2z36l3A/hepRjmniPAV5YbonnSimsyvi36o/hrTQrf8Ji702Z46UqeQs2Xkm/UROGxqmNVdQDwRxvdnn8zkcdB9FSmNRqUC9ba5HK+Cgc0V/BLLIFeOCQatBz4ep0hmZSuWjT9qIlXLVlzidLiJuIuCf3blSxs/H2BZ2soxD0p6GlpbM61Zxphn4ZJbnPU6sKehomCK5U8YPxzR4GiieZOaEV9pHduMEMn/AAtJx6sTVa80RMVORJ1RZBZnBhYqMq1YdZC9XZvd0zgV4Fhp1Mpc75UWmnJJ1nOnjVSrT09PnJ1NnxUin0G4vPDs7OTn5cM5I9C2gdeVMNvgpEky20P0UOH3g8zWj30Hbctj9ZKcbCmtkgMvBP3IlmH+ipNl+E+XkHhK5HPazVRUQZUQglTgf54wz/jQ50kyvUDYOXFuXBFKSUjJcgWzO3pX/Y3jwnGtwO1NEPpygnJ+vkrmn1Oz5+cmHD319KwtEVlYaZ3MoVP2/mIn4yaK9NvPj//iTzP/W677dz5a6qP7wFTJ/EKMnFmqzwpak5GGex5fgnTFxym/HPpjfLgk96H7qqduBFFmfEfa6XY81aztzveydJU1n8TERW3bVHnLUeHJPEztU7d49PZ9T3OJPPbOPfVgsLiRpj/9MhEJdH7gMJQUicy0tMBwrTvaaS+3VL9FX3NmVPa5HzfBklFwtuEY6zc+cY31DqbiQpIVmeCggm0GcS6QzJi2pL/EvsuymV2TZ6o+p9pjgAfMS2Zl8bOBbxfPBBE+m+lDpRUBzLuX5Ere5PqpSWVbay4efiOf+NA730LzHRz5K8YBxfaDHGn0SHgpkwak85a1WsZc9zy7z2vs0PGSqcJrjIeYlOczx1F9oXMzE+rCDqH1KpMete5olIurxKMddMjwzRMjkZdIj+XjVheal4DkRMHEGLgodcqNaOi63WzUo25KoMS8wOBriuXll1/xdkJyK9fZAUZ4XIC85noYjVfqFIx+vuQSCh0auc/AmkECfn58pePpQVD5O22wqNetWnrtTC1p9okQk9r47KxOiA44HpzJEBY/+NIRphgeXKrR4mMx2Ujz06JVlxcO4+sgtqzrj7NPbG+lFZ6d5MQny00DJ3GV/jOHR7yUF86IFe2LRDA9u8S9BPuToHtXDuNgda3yOwTGR+n4lK82LyQT3zGQb4Avummd0K4NHPtbPmBIkP8UT0AzP4RERxDOTbthj9e7Z++KS7QLBD0hMu5au65Y/Sw544ELz8sR45DrWXXTKD2pOczy6raSznSwrRCCqt1HSG23MolrE1QhTaG5eWbnuE+QnETPzYnhaTo8VmQ5KPtYN8y0z47IHtL0LJ8OD5iUpeFR/knIb+CysKI+yNXoxmeBpDzGv92raw0/uwfGDtI83C1nNpd+Lk3KztMe9SE8YUW2HyqxLj8e5MqvUYJLA3nRlZfRSskJcV5dmtEkzbzWncQmZtwsZHrtfMwfWaGMNw8eqM9GFI03KzEyph1/mXmbGl63mxc+Ix9S+f0aTNCvqQ82L42GHzmlPnetkOTOWC3OKKakLXZLRPbuXFYtzzTFU2bkuNsGTZmJep5nagwcgpH28Ec+1B8oJ9RRHNC9SUqB5qemfOgc1ZzAvW6+kIHP2NVLl6sxK8+J4YtS8MrUHZ+Kp51HpkHWKeqWWBPOiFemCLvdRDXDBgAfbGMqThYUsNi+Z/f8UdOT7iG/muk+KLrYLWVpMmOBRN+OIvGC/yLwyojuesNpocElZa160IqXmpWhPv0ZwfT0TjzoZlnKzeh2PVetTb1uxFyMK25KkdMQUyVbzongU86J49MeINKt4/CeFfA1QOTKsz0nxkOafgkKNXovG5IdcaPDZ2Wle2zHW7Zmh5sU8c1K7A05A8+J4zoUz3uwpYXck2li3B5t/muRQueEM9aFdwse617LUvHgzjBwxcqoELt1Fqz6Hikc4UfiwALbsZsUCmpfKR3HPKaP3IeZlzBk7hSwUkeMhxbo0w/DU6s1LieukIm308yEEdktoXopBZeqPqOiJc0FjXgZurqzcdQDmRbs9qnnRPdqSRpYTXHsItjk/b6U6iRqInAixGpUPS3+kx9y6nCuN+ia8zryycgrmBV8EJL2wUyUrVP7jKSKKayafWQ7wTjM9xlqJQ0skAKlG41xJLaZm3Qqex5wdb8JrQp3NeSP3/w8i8kY8Ma9gUpM012qnV2hgZwVpKsDXKeg58fwuWbzS3LSzt7dXLcYei8Y1rh5V17LVvHivEHthE0k1aW7OxMN3c+EJ+rQZRnqFSueLdScyvTEFsCBlrHFpbNGdnebFe4XEvLQ1hQaPUq+zelQM8FUcG2qMogS8O7FijObEvfSJJmtcZqVaFomotFKpeX1Ue9R+j7rIVSJkmBdohTMDkItYYmYTXonw2WlepFeIBSnZ7GY+OafWFH/z/H9FWWBfAhrcnHqV5t+iTV+tu3obyUczu4SKLWZp9KLNnoYZ0mrmc3M8dvno4BwdYAFRFivOnXx+ZWlRSC2xGRbN0LfY2OviWuXq7WS7CKUlNuyiudDloq9l53948WJiYiINsorVhLRqLuf4G07rKvl/jzrLvAgs+Fiz9icvzq2AUQGkldkUx5EyuXCOvZZdUwnXI5ha3uBf/7//oWVqGQkQHQAAAABJRU5ErkJggg==;" parent="1" vertex="1">
                    <mxGeometry x="467.77" y="120" width="65.23" height="40" as="geometry"/>
                </mxCell>
                <mxCell id="38" value="" style="sketch=0;points=[[0,0,0],[0.25,0,0],[0.5,0,0],[0.75,0,0],[1,0,0],[0,1,0],[0.25,1,0],[0.5,1,0],[0.75,1,0],[1,1,0],[0,0.25,0],[0,0.5,0],[0,0.75,0],[1,0.25,0],[1,0.5,0],[1,0.75,0]];gradientDirection=north;outlineConnect=0;fontColor=#232F3E;gradientColor=#505863;fillColor=#1E262E;strokeColor=#ffffff;dashed=0;verticalLabelPosition=bottom;verticalAlign=top;align=center;html=1;fontSize=12;fontStyle=0;aspect=fixed;shape=mxgraph.aws4.resourceIcon;resIcon=mxgraph.aws4.general;" parent="1" vertex="1">
                    <mxGeometry x="359.5" y="215" width="20" height="20" as="geometry"/>
                </mxCell>
                <mxCell id="58" value="Namespace: tekton-pipelines" style="text;html=1;align=center;verticalAlign=middle;resizable=0;points=[];autosize=1;strokeColor=none;fillColor=none;" parent="1" vertex="1">
                    <mxGeometry x="346" y="80" width="180" height="30" as="geometry"/>
                </mxCell>
                <mxCell id="62" value="Namespace: argocd" style="text;html=1;align=center;verticalAlign=middle;resizable=0;points=[];autosize=1;strokeColor=none;fillColor=none;" parent="1" vertex="1">
                    <mxGeometry x="592" y="80" width="130" height="30" as="geometry"/>
                </mxCell>
                <mxCell id="63" value="" style="rounded=1;whiteSpace=wrap;html=1;dashed=1;" parent="1" vertex="1">
                    <mxGeometry x="321" y="330" width="409" height="130" as="geometry"/>
                </mxCell>
                <mxCell id="64" value="Namespace: demo-app" style="text;html=1;align=center;verticalAlign=middle;resizable=0;points=[];autosize=1;strokeColor=none;fillColor=none;" parent="1" vertex="1">
                    <mxGeometry x="450" y="330" width="150" height="30" as="geometry"/>
                </mxCell>
                <mxCell id="65" value="" style="rounded=0;whiteSpace=wrap;html=1;fillColor=#b0e3e6;strokeColor=#0e8088;" parent="1" vertex="1">
                    <mxGeometry x="600" y="195" width="120" height="60" as="geometry"/>
                </mxCell>
                <mxCell id="66" value="2. 同期" style="rounded=0;whiteSpace=wrap;html=1;" parent="1" vertex="1">
                    <mxGeometry x="610" y="210" width="100" height="30" as="geometry"/>
                </mxCell>
                <mxCell id="67" value="" style="edgeStyle=none;html=1;" parent="1" source="11" target="65" edge="1">
                    <mxGeometry relative="1" as="geometry"/>
                </mxCell>
                <mxCell id="69" value="&amp;nbsp; &amp;nbsp; &amp;nbsp; &amp;nbsp; &amp;nbsp; &amp;nbsp;Nginx container" style="rounded=0;whiteSpace=wrap;html=1;" parent="1" vertex="1">
                    <mxGeometry x="487" y="380" width="204" height="50" as="geometry"/>
                </mxCell>
                <mxCell id="70" value="" style="sketch=0;points=[[0,0,0],[0.25,0,0],[0.5,0,0],[0.75,0,0],[1,0,0],[0,1,0],[0.25,1,0],[0.5,1,0],[0.75,1,0],[1,1,0],[0,0.25,0],[0,0.5,0],[0,0.75,0],[1,0.25,0],[1,0.5,0],[1,0.75,0]];gradientDirection=north;outlineConnect=0;fontColor=#232F3E;gradientColor=#505863;fillColor=#1E262E;strokeColor=#ffffff;dashed=0;verticalLabelPosition=bottom;verticalAlign=top;align=center;html=1;fontSize=12;fontStyle=0;aspect=fixed;shape=mxgraph.aws4.resourceIcon;resIcon=mxgraph.aws4.general;" parent="1" vertex="1">
                    <mxGeometry x="539.5" y="395" width="20" height="20" as="geometry"/>
                </mxCell>
                <mxCell id="74" value="" style="edgeStyle=segmentEdgeStyle;endArrow=classic;html=1;curved=0;rounded=0;endSize=8;startSize=8;exitX=0.5;exitY=1;exitDx=0;exitDy=0;entryX=0.853;entryY=-0.04;entryDx=0;entryDy=0;entryPerimeter=0;" parent="1" source="66" target="69" edge="1">
                    <mxGeometry width="50" height="50" relative="1" as="geometry">
                        <mxPoint x="590" y="430" as="sourcePoint"/>
                        <mxPoint x="640" y="380" as="targetPoint"/>
                        <Array as="points"/>
                    </mxGeometry>
                </mxCell>
                <mxCell id="26" value="" style="sketch=0;points=[[0,0,0],[0.25,0,0],[0.5,0,0],[0.75,0,0],[1,0,0],[0,1,0],[0.25,1,0],[0.5,1,0],[0.75,1,0],[1,1,0],[0,0.25,0],[0,0.5,0],[0,0.75,0],[1,0.25,0],[1,0.5,0],[1,0.75,0]];gradientDirection=north;outlineConnect=0;fontColor=#232F3E;gradientColor=#505863;fillColor=#1E262E;strokeColor=#ffffff;dashed=0;verticalLabelPosition=bottom;verticalAlign=top;align=center;html=1;fontSize=12;fontStyle=0;aspect=fixed;shape=mxgraph.aws4.resourceIcon;resIcon=mxgraph.aws4.general;" parent="1" vertex="1">
                    <mxGeometry x="614" y="215" width="20" height="20" as="geometry"/>
                </mxCell>
                <mxCell id="77" value="" style="shape=image;verticalLabelPosition=bottom;labelBackgroundColor=default;verticalAlign=top;aspect=fixed;imageAspect=0;image=data:image/png,iVBORw0KGgoAAAANSUhEUgAAAOEAAADhCAMAAAAJbSJIAAABTVBMVEX////+cz7i9fzN7Pb+/v7+azz+YUK10vMICgoAAACy0PPh9fzk9/z+bTP+p3ez0PPb6fn+ai3+cDn+aEvJ8//P4ff+ZEb+ZiTS7vfJ9P/+bDDd8fv+XDv+t6K81/TG3Pb+VzPq8vvY7fr+USnc6fn+Z0H+WTb/18z3+v7/eEH/9/X+rJL/5+Dk7vrJ4vfu+f3+lIL+saX/xbX+s53/8e3R5Ov/aDf+49/+nIy4uLj+fE3+iWLg/f//zL7+pIn/yrvmtqra0tL/ZyH+n2/+raH+dl7iurifoKDn5+eSkpL+iXbMzMxvb2/+mHj+kGwWDwz+WwDex8Prqpj1j2/vnIj6eFL3gmP+j173j2/roJflsa3+gm1TU1N/gIAyMzIeHx9cXV1oKQ2IPiE5HRKwUCzlaDgrFxBjLxvSXzR9OiHat73+RxX+fVn+lGv+gkx2glZEAAATg0lEQVR4nO2d6V/byBmAByJjfK2RMBbxDQ6+MIeNwQ4ECARIQpbskrTdbNmr2027bbf5/z92TmlGmrEFRpb8q98vATOQefye885oDMBMZjKTmcxkJjOZyUxmMpOZzGQmkxetAUULehY+SGNtaaVcisYtiZZXlrbWgp7W40hja6VEqQTBL5VWthpBT3A8WVuJErR4Gv6bZpDoO/IN+unK1Opyq4z1BFFK5e319Xw+acl8fn19e7sUTSNOOGYaIdcIXry0vU7J5gUhryXWt0txDBldmipzbSzBOafTkM6N5gKdX9+OYsjy1CgSqQ/h5UfQcZQYEip8K+i5e5G1EvI8hOeFjoMsIUWGn3ENZYbS+r3wGGR+G7pjvBRqW304H4Gcx4zl0MacRnksPsqYhv64FDSKXJZgfImOxYcZ8yXIGA2hqe6gYLg9Lh9mXEd/aiVoIKesoBiRfwQ+hJjchn8tGipvbJSwAsWJJhIPZ8RqfBY0li1bEgUmkjs7yQczJpNlFFSDBmMCLTRddnhgYkeDwiHCnycS+Xx+FQr8JzE/wmWTKKiGxFLhu51ed0430UCEGiaEbBDsiVMgaWIIJbRUWOOEIKZqqNhyh5gEBtTg65DOBcdh5udVlMl55N2Bp8ZGVApo6XAYnQ2pYiwHnzYaKMY4tYBMk/ihBz4CqTBXnDYCjTcY0MmX3IGMyfyO1vAKqGbE8SZAxEbUBZiYbwAN7HixTk+MwWpRg8HOCYiNE+zcm48whg0RhjoRECsQEd5fg0RkZR9GDCbcwEAXdXggSRFg/oGAUCSmihGDqOCWnGkisQMIYPLhgNBUJYgoaUw+9a/BSkYEpBbqOUWoECWGWoIhbdIFnAbfVrFUoxaqDjIZKKv7+/jfoYwSb0QxbcKEpXiaXy0lCCBQpcBMZv/2w8emieXw5uXt/jBKl6Um8xOPNs/EMEpjjMoDM/svj0w9ZcxhiRwc6KYZGVztKyFdlppcT0/WFVEtk3cDJuR8Zx/NHKUjiFgg5l+unigg3Ygo2kxw37HkcEJNnQUzZ0cmj2cjIkj9w6qC0YUYnaSdwjV92RtgZv+ji49DhJDmB4Wluux0kilDTPWJIYAvZXwCYkSP3D71hAgTf3RCgEtx3kbJSlBuop90KZ9AGImYf5JaqjOiIjudTGnTEOIoqWRAXmahcykFoAPx4M/7HhCxnU6EcCXOxdFEEiiiaOZMYaEyxANPiKXJBJtGnO+MJlSFTOb2fAifgxBGVSmiuJzCeX8CGWMlnuaiDHbCxlBAw5Dq0hOiwxPLk1CioEJio5pkamcm4/vy31evvhuaMQhixIOd5ifhiUuCClWlzD6LMcarr5C88oD4F1lEFftwSIm+h1NBhTsqJzyiRMZ3XxGRaNFBGDE/yBAFV0Se6HdO3IrHuf9Tk9to5gPLgwYF9KLEiHk20k5ROPW5sCnF7XoNhxmZjb6xwygj/MoD4cGfRytxPe5zW6rBlzM4zMji6JGFcy8dRsyXEkSHEqM+J4yVeNShQkm1dmtaEDTQSP1QhijRoRhsYHXqb6yJcit7pQoPOZpDSijhkxAeSIONoMR82td+xhpXsHlRIVQiRnwlBXQTypUoemLJ16bUCtfET6iqmU+iQRrNwzlFgeom1Ed6os9myhkpyYWyZD+8Hh1OeHAoWyvyOpxP+BlNYSS1On0JVS58mRuDUJETnWbqG+ESF0lRnJH11rhU8SAljow1yEx9S/plO90TI5XEmVXvRiol/GNU1vc16XNdYFWceXKralx4NVPJ33SYqT8tqcZaQ1viF/cqI/2g7lx4I5Q5omimaBfj0c9ML5HHCeIjjTTz8R5uKCPUr0aa6TY5/f6oZ20b9DECKxuStb1kKkJB8xBCeajhKzfU4ccPMjymGpcooeCG0m2mjDmaaxhg5GAgIxQcMU9m86hKXCF/kws0QLFNsT824Sdp81RwREr4mIeJKKG9csLZUNYEtgjhZO9DuGERSpsZQlmDQo1fhMwdyJEL2UwQYWRjgcnGUEwKl83isdnsxoaSUHDEsm+EaSGUyrLhk1XTxqOQwwmz4ujsxkfpLgbviDiY+kMY5UOpfD/7urDgEiVj5HDZPbpwJUOcEKGQLCT5PnNWIIC1ShVJpUZnrbBVyleoVZDU6JtT/V6CyK+gaLrwl1C6cnp6VcUTrl5e1NutVqt9fLFcLajVSAy0Bocf1/v9eneQJaMruxJXFAh902FZIHSG0qd/rWK+QY/7zf4umbUEEQPWap2Wa3Tl2o3oToj+EzpNFGuwcgf5NFsAaF9WZIhNbKLVC8APB6CHR1d2XYbK120J3wjFhO+YwhkCrHYEPjLri6rEF1HILRT6zuEAdPAb5fJFoVnjFyHXzwfudIjMq1p38uFZdzGiG3C5JRkOjvFbdeswVCEhBkGY+ROMm9VTGSCcNNaLYKc4yMgA2RtSeBIywn04q9pADggnvVsQlYiiTLWtGA4G8N2qfZ+ZPGFUTZgZIATbqcivcd5VEJWIXK3D/5wfDgAOQvuhIlyFKqwcc3N8/cMPP77jEI4rvBKRCpe5n2pv4fA3QBjtUOJkCMuqWJq5QgD2DN8sxpD8yEFkeSUiFZ5yw/Ho2Fv7FVyiKgl9i6VcTeMkhH5Wu7An+FNsEUnsuf1Sp2YrMYIILasEYJEOt5QOLlDcOlMR+pcPS6qaJgPdrNK35veOzHgx9rNN2K/ahDBVFHbtHz1nw38A/OiK0LHhCf2raaKquhRF0qo95dd0yosxzrdqdtaHhJWu/ZMfreGahehyRC7j+1iXpgVCbm1xBid0OYLwrmA5YpbXuAbeWsMbFuFlAaqZJ+QDjX9rC+sUhnN9CAkL1/aULStd5ELNrkBY7Ums9CfAjy7cqQj9Wx/aXQzUTOTW+LcV3rE0K3S85l4biIQtLrXE3IEJji5c8oT86mnbvy4G60Q5+zRnDkIa/n/hlw1KQqRzLF+L74dAKKzxfexEsZSfcPTaEOEdj6O9/eWHr58LC6NrlZWidwQNf8e/4rRSgZCEvUfdKGWxVChquGCKYukCN0Fn1YZeWRZjaX3ocBxp+N6wOx36QygkRM0ONZmaaHduAa2qQFjrDB0Nqo5s4U4Wj0vIuvpxxb5FBqYCriyVzbleEWoawajdo/twdOVWFWh86OqvMcI8H2psR8z8tcanC9mcOTfEdelQlYMLOLrKAQpuWKaTedQNthW8t8afpgFCRsRFTU89Z9DjjBQTDjNTgAqgwrXCDVGgQXt9j/wMtNbATzULvSjOTJ/iGmTInMUlMOph1DTlcFymV644HfKAebwH7M/Rry37pIJzi/QWKbGvmjOoV10r4CEdgRby2SzXi1oV3fBxN0d50eKO3acdQYkLWYVaQKvgaEVtKNtWGi1hhZWFYKR+njYBpbh4VIFbIyJPLFy6eol4FMpujnbigrpRAwYVFGv5diIH6O+JIZg1SqKZ2s/DZlDHu3YnQQStS0eXhi6C+QUG93YMcE+Y79KI2zJp/4wU7een7ZN7eEL2NJ7it3657WAEoF9w2iiz04Vq19URbt0hwOqZYm3os5EOP9iWucZzu2gJTbbWALeDnYAUsXLXB0KHrlvBnWVheS+c3Mv7fEiYP/c173wSIbNbwXtJg741vk43ZtyAFLFQvTu2An+7U8B7HI6GtxBn/DzzhYQ/Be0+5v30e7K9VqncDTqdzuCuUhmyuUZ8EY6uXg4uOp2L60IV7zcWCmdiM1g4pRD1+7B+mb8mwvU4SeaWbnMWCrVarcD2g5Wb+fTnwujKnWPbTjxL4/tVZ1v8KWHsicJWcGb1bsEpww4rRFyjK85NbvH8rL8nhLFE+ccRcHgQ3vLMy9TcxoZ1/CA75JwCZRRONmxEzodtq/n/MAJAT3HH7eS74zrMTg/QNkeBiZBE8AmcnGNXzaVC/5+UjbuUKNjplfcjwnJxEM4LKvT3oD4V4Qwmeb5y9REJD9WbahNSoUOJLju91wlatxjiGWHRRtfjk7k74hn/ZBBJio9IeCQQzgsqnNjtZuLNQg4zPRuT8JOqIMXlzIQuG1rjb/1IJBvClVfjEn7km6SCjaK1/aSucCnHhVsxEolHJOSezXc/ejix6+k05wVR8zbivY7QuiXFEYpOOMErFQCu3cS7PJOrQwm9n/1O2ce8RcD8hK9vKXPPB4mIMsLDQ+kjCobkVZvQ8Sz+hG4bsERz3vNlI0oIc+BE8qp5sudGzLGH1xyA2+lJ2iiSNZcrUsSM5KkgswfqKQdNKlcHXTWhA3B9gnGUyZLTFSniU4m29DrU+sk5543G+UkLgBu3f+auZID5QK75LMcdl30RxIzEuXLoWAJovz8nV0UZufMb3EiUGfStGxBd9RXIxYJR531mGDEjWTilTshVbu3iUc405266eIcD1CWpU791XxKF9nwnfZcZFnwdlgMxL30syPiDnskAqK8GaHNNRei6eaecnuglWJysSa6fTUifsPwce+fq/YLnf5OoWz9zWii+NjGoG5O3JIgvPsnSe8yFCN7GfpUQmm8SEsDg7kt+5kZMbkpCTfPvsdhr8UD317HYb5K3Qn/hBJxwLeMU1wWY80nZk87NX2OLsZ/e2b/37mf4wmf3QOPwhRsw2A/1WHLeEJmQtjE+xxYXY7Gff3z+7uzs+WuoP/j9PyRGatwIhAHd6ynKM8d95QnpIr/5T3TsKcYEn4CSGWnqhCNMJksBmyiRLfFDAxJvpMunz+x0niXfyDqOqT37LyUTpQCjKC9rcaFLLCds/uZAjP0uG5b7YD/wj2rRUjg+hK4RjadL7ALgxLx8Cdz8l4AoTRWovksyCw38snJB0KXJzBlfKBb5AqICEC4tyF8hn8US+J36nCxhS8Wze6Fq1EBDZQdJY78r2v6EkH5ISfAxhpc19NFp+GN0XihbFs25X3Ek/eZX1QhCmFyPorvmw+GCnOBPmoGMakLI2Pz8+++fm+p9G0hIDDTgNC+XNXQsrLT+YpyNi9xxHvl0CBVI5Bk+/DZOO1H/N+KLhlGBRDR0wm8cHZrR8H5iF5XGSvxeu6MOScVD/KlrTLQxAOfMUuj5oIzjh7lu0LP3IuMQGkdBz96DdA/GIJzTW6P/h6AlO/pOkyGyMAh6/iNld9hVH6MlW+2P/j8ClUFheXkMwEg2Wws1YvtyYXlcwmylEzSGUuq7lezyeIRzkDBby3baQbO4pd/dLRQw3/iE2WyhsrDbDZG1tjroICnFG4/QWMhmGWT1P5fHQaNZ0u9cF6yTpbLzwF4Bj66rtQKUGlZiyJZQvXq30+l0+/3Bw1N+qgha6M906+FO/H+wVb78Qv0hgjaLp0GKKWZzm/dENHuj/3oYpEvXwMZN8T4XYSLCkHmeSo4fTKgHPXWPwnavjROPhEfsi2bQU/cojDC16Y3QYO5q/BH01D1KnxEWvRHmLLOehvUvEjehIetOWblEbzOzfh/01D1Km/Yxcl1KaBxJTrAZR++ZcbKjQ8ZN0FP3KD1GeMx0eCgx11SX+qtxCKaNsMUI6xahRIepIjVO6H3MmE+CnrpHYYQ6IzRupIQ9SvgJ0HNUqc2gp+5VGGGbEW5KDtmkivSdgLZJPRIW3lMiuoMwVZQS0ncidQJOCOF09IORUBy9Rwlzp0MJNwH98bQsLQCYY4R7bOZyQmqbe2w1ooeocTFcaOAwNKZDBSEZBwnpamRaFk8AkAOYMM+xdZSCkAQY+AXNjNNDSGYOazBK2FQQ3jBCWueZ4e5dcEJmDvP38XDCkxT9gtZ500NIZ74JjvUhVroHSCDKFVmNYAY9cc+yx3RD/UtvywmLjJDmjVzQE/csRWycuVPmXwawCQ2OkLgpIsTjYGiaFiEzh/m7zWZ+Yn3io/UUCSQkRowqmUP8s2lZAANwSgjbdB0Fg6q1etLbbFVoGTEixPllahbArGEKsxuJIDCossQ4pwO2zBAIb6aMkNQqKDKa1B5PrQaj3acqUiNGhMSKp6WZSKeLvYohsLQBv2QdAEhIvkSERMfG+2lIiL1uM8VgGOGxRYhqa9tKNYuwR57pM8yTkC8v+nuHZo6W3Sn0gk6DKjNN1Lbnlrsp6624Ydx6KryQ9RM4PSsXmGijmkQaGFQZIWpq76UsQhxCMaF2qFu/quthhGztmd+em6ZOxExtYo8iYOctRoibafRrRIgLAdphKzZNJPjXz7893wzjOqPVa7f7UNptFjBwUEWlCkfFQg0qZYh7mm3rD8C/gKQHJYSHFVxSJ1kDobACFW/M5+xIRGD1YhgVNkJa9c054lmGAawNN7LEtRa+0Cepbs+PwnMoYaRovXbxZs7UWXBMISrWiMEjSKgh7d8jtmUBw8txu9ULfULsdf/75cuXpqnnsOimvom3dWlfg8QU5pT4myJ8M3KpVCqXM89148uX77qhhmzVqRyfdpEc03DRp/52Sr61+qRY2vVuEUr3lP3ylGx181LP2fkeCV1L6dOyTTFK6u9Zl5817WmNBn10bxpywlDR6ic5Vqyk7D3sLjspnTKbeyGsX7xKfe/ICqmwqOZX8EXrCgkDFmnoCoKpk3r3xrSqVCOVMw/FhNe+OYc/Zj/Pmc3N+lRRnn77LapSqTTfb566p6/V924OdTbmHP5GM9R5QpQWeua+RWRE7G/BYhSNwpdJTGRyM5nJTGYyk5nMZCYzmclMZjKT/0v5H2kTfxHhIHZlAAAAAElFTkSuQmCC;" parent="1" vertex="1">
                    <mxGeometry x="640" y="121.5" width="40" height="40" as="geometry"/>
                </mxCell>
                <mxCell id="78" value="" style="shape=image;verticalLabelPosition=bottom;labelBackgroundColor=default;verticalAlign=top;aspect=fixed;imageAspect=0;image=data:image/png,iVBORw0KGgoAAAANSUhEUgAAAIAAAAB8CAYAAAChbripAAAABmJLR0QA/wD/AP+gvaeTAAAfkUlEQVR4nO2dd3hUVfrHP+dOzaSSBgLSQ0dAQDrY9mcFV4qAa91dyyK6iqCuWNa1ru6qu+qyrB27YllWRWnSi0BooVfpIZVMMn3u+f0xmWEymSQzkylB+T5Pnie3nHPfuee957znrfALgpRSSCkvkVK+LaXcKaW0SCkLpZRbpJTPSinPSzSNZxEDSCkVKeUoKeU62TBWSClHJZrms4gCpJQ6KeVNUsodIQx8IDZIKcdLKUWif0cs8bP8cVJKE/B7YBpwbsBl25Ei18bl22yu/cfdhjST4jw3R3Fd0icpM9Wk9ACUgPs3A88Cnwkh1NhTH1/8rBhASpkO3AX8EcitcQ1KF+Rbt/7104re5VXujGDt2zbXHH7ihsyDvdrpLgAMAZd3A38F3hdCOGJAfkLws2AAKWU2MAW4B2jmf02VFC/aZN321Een+lZa1bRQ+stKU4qnj0vfdmmfpL5CENjmBPAy8IoQwhIN+hOJM5oBpJTNgfuAuwGT/zW3ypE5yyv3/+O/5gF2p0yKpP/0ZMX8wPj0LZf1S+ouAhgLKAZeA/4hhCiLpP+mgDOSAaSU7YF7gdsBo/81h5tDsxeYj/1nnrm/W0UbjeclG0TVXaNSN4wfntJZUWgRcNkMvA08J4Q4Ho3nxRNnFANIKXsB04FJUHNwbQ65680FlcXvzDcPUlU0sXi+TiscN16asu72y1Nb6TS0C7hsB94FnhJCHI7F82OBM4IBpJR9gT8B4wig2WxRt774ZYXtf2st/aWMz+9RBOp1I1LW3nNNaq5BJzoGXHYAnwBPCyF2xYOexqBJM4CUchjwIHB14LXyKnXbkx+Ws2SLrUf8KfNAEahXDzRtmDYu3ZRsEIF0qMC3wJ+FEBsSQF5IaHIMUK14uRp4GBgUcFk9Ue7e8Ni7ZSkb9jq6xZ+6ujGkm3HrjOvTbS0yNAOCXF4IPCaEWB1vuhpCk2EAKaUCXAX8GTg/4LJz33HXjzPeLTtnz1Fnh7gTFwYGdzNsfeT6DFuLDE1/ar/flcBfhRD/SwBpQZFwBpBS6oGJwAygc8Bl++6jro0PvV3a9qdC1znxpy5y9Gyn3/3Y9RlFHc/RDoJaQukm4CU8SqWEahcTxgBSymROq2tb17xG1Ya99g2Pzi7verLcnRu0gzMEbXI1h2dMzDjQP88wkNraxQLgBeBDIYQr/tQlgAGklGnArcBDUHNPrUpZumiTbeuzH1f0PmUJrq49U9EqS3Pssd9k7O2fZ+hPgNIKOIhHuzhLCGGLJ11xYwApZQ6n9fQ1BleVFM3Pt+5+5uPyvlU2GfhyflbITFVKHhifXnBpn6Q+QpAecLkQ+DfwohCiIh70xJwBpJRtgal4pvtAde3hOcsrD7w813yBwyGNQTv4mSLZICrvGpWaP35ESldFELjMedXM/xRClMaSjpgxgJSyIx7jzB0ErH12h9z7xoLKwnfnmwdGS117psJkUKqmjErZMH54Sp6iECjoVgJv4dk5HIvF86POANVuVdOA6wmQfm0OufP1eZUVsxeZB6hx0tqdKfCqmW+7PKWlXiPaB1y2A58CfxFC7I3mc6M2CFLKoXgEu6sC+/Wqa+eusQRTkpyFH7zaxenj0lNMBhGo7HICHwPPCiF2RON5jWaA+tS1Radcmx9/75R27S57wtS1ZyqEQI4aaFo/9dq0pFST0jPgslfN/BchxLpGPSfShlLK7sBMYETAJffhYtfKGe+UZ2/7ydG9McSdhQcX9U4qeGhCupqdqgR6LUvgA+B+IcTJSPqOiAGklKPxrEn+wp1j5xHn6kfeKWtzoNAVuIadRRTQL0+/+7FJGVWtc7R9qDl2J4BLhBDbw+0zbAaQUo4AFgB677mjJe41d75S0uZYiatluP2dRfjo3UG/85XJWe4AC+RJoG+4u4WwGEBKmYTHSzbPe2r2oqrl//jqVOAycBYxhiJQ35qatbJXO8Nwv9NfCCHGhtNPuAxwCx73JwDmrrYufeLDspHh9BFL6LWCzq119GyrI6+VjuYZGnIzNGSnKYjqX6rVCCqtKiVmlZIKN/tPuNh12MmOw05+OpkQdXzEEAL5xSO5a9rkagf7ne4phNgWch/hPFBK+R1wGUCVXW678IHjXWPlfhUqstIURvYycnHvJPrl6dFrI9/YFJa5Wb7NxrKtNtbstOM+A6IAMlOVkvnPtBACMqtPPSOEmBFq+5DfVrXZthxIAnj+s4rVnyyrHFx/q9ihXyc9ky5MYWQvI0pgKEcUUHTKzVerLHy5ykJhuTv6D4giXrsra+mgrgbvTPyjEGJgqG3DYYBBgNejxTJk6nERqbt1YzCwq4G7R6fR7VxdXJ7ncku+XGXhje8qKa5omoxwfkfDjtfvzfIqjZxARqgxC+Ho4Yd5/ymrVHfZnbJvGG0bjQ4ttEwdk87gboEm9dhCqxGMH57MqIEm3l1YydvzK3G6ZVxpaAib9tu7SElFdRCLDhgALA2lbTiT5xDfA/c5ToVHYuQQAsYMNfHe9Jy4D74/jHrBHVem8sGDOfRoG5/ZJ1SoEqWkQt3jd2poqG3DYQDfer9okzU1jHYRIzNVYdY92cyYmIFR3zRsRx3P0fL21BwmjkxONCk1kL/PUel3GF0GkFJ24rT3jrpihz2vvvujgU4tdcyelkO/TvqGb44zNApMH5fOEzdkoNc1DcZckG/1dy4ZUu1k2yBCnQF8HGV3yH3mqtCCLCNF/zwDb0/N5pzMhO4wG8TVA028fEdmk5id1uy05wFeRUYGEJLbfNgMsPuYK6bxb73b63npjkxMhsS/1FAwsIuB1yZnJZxei11Nttqlv69ASMtAqAzgEwCXbLHG7LPs3kbHq3cl/mWGiz4d9bzw+0w0MdBHhIMdhx3+FsHoMICUssZ0sniztU34pDWMrDSFv9125nz5gRjU1cDDExPryPzDFrv/9iQkBghFDzCEakZRJScPnXQHplxpNPRawd9vy6R5RnQnl8JyN3uOOiksd2O2ePbuGgWapSqcm60lr5Uuqgz368Emtv/k4POVickbsXiTtcP9Y3ziWUcpZQshxIn62oTCAD5OOlrs2g+1PFgbjduuSKVXu+hI+xv22Jmfb2N5ga1BFa4ioGc7PSN7Gbl6YBLZaY1nwKlj0lm/x5EQw9KJMndztyqPaRThNcsPBr6sr01YDLB2p93eCPqConsbHTdfmtKoPqSE+flW3ppfyd5jzpDbqRK2HHCw5YCDmd+YubSvkTuuTKVNTuSOyka94MmbMrj1xeKEGJMOF7kPtmuu9TLAUBpggHplACmlV60IwIJN9uxGU+j/cAGPXp/RKOFp/wkXt7xYzMPvlIU1+IFwuSXfrbcy/ukiXplbgcMZubq3R1s91w5JjKJo5Xa7/9TToBzQ0Kvvy+lgDuvm/dFVAF05wETnVpGrVb9cZeE3zxdRcDB6Sbtcbsk7Cyq58W/FHCmOfBq/48pUko3xF2gX5Fv9w+36VafMqxMNMYBv+1depe52umTU1HJ6reDOqyLTKEsJL39VwVMflTfqS60Pe485ufGFYrZGyFyZqQo3NXJpiwTbDjk6SYk3rEwH9Kvv/oYYwDeFbD7gjGomrCv6J0Ws6XvpywreW1TZ8I2NRIVFZfKrJRHPMOOHJcddS6iqKKVmNWSFUEMM4GcAskV1URs3PLLuPl5axQc/xH7wvbDYJff9p5RjpeH7AqQnK1w1IO4uE+Tvs5v9DiNjgOpUbK28hysKrJ2iQBsAPdrq6N4m/LW/4KCDF7+ImyXah1KzysNvl0Uk1Y8dFn9hcOFGm7+tZmh9hqH6ZoDTBiCn3HeqSg1MlBgxLusX/lfhcEn+/EF5wvz0th50RLTsdGmt49xGbCsjwaptti6cNgw1A7rUdW99DOATAPcdj64BaHjP8CPBP1texYETifXaffN7c0RuYZf0iW/ku8UhTVa73Od3qs5lIKQZYMlWW9QkmY7naMNWtNidkrfnx2/drwsWu+T9xVVhtxvWI/6pD3YedhT6HQ6p676gDFCdxsUXdbJ4kzVq+v/eHcLfSS7It1JW2TR8tL9aZcHqCG/r2b2NDq0mvruBJVvs/l9Z2DPAYKpj+1VJ8YETrrbRIqzbueEzwNc/WqP1+EbDbFVZuS28ND4GnSCvZXzlgB+22vzT6eVJKYPacOpiAB/HHC917avjnojQNUx37gqLysZ9TSs9/w9bws/jFO7vbiyOFrtaqCreOEGB35beHw0ywI87nVH9/Fpnh6f82XrAgauJuWFv3h8+Q7ZIgHvb4WLXT36HQZeBWgwgpdQAF3iPF2y0RM0ApNcJUpPCs/zsPBK5gSdWOF7q5lRVeDJJi2bxZ4BV2+z+Ly8oAwRbmHoDXiW2fdM+R9QMQNmpp4M0Q8XxCDRwkWJkLyPtW4S2VttdtWclp0tid3r+bE58/zucEoNWcMuv6rcNFJ1y800U5Z0Fm6zNJ13kU0T1k1IaA/MQBvu1Pk4xW+Quuyt6tfSSIvC+KTXHT/o3GQR3j47c4VmnFei0gpQ69Fy/Or9uBVh5pcpt/yiO+NnBsPWgo5OUVApBCp5kHv3w5Cv2Idh8fNoAtN8eVQOQjGApj6fmb+FGW1wZzosqm+TumSXsj7KiS1XRlFbVHzEUjAF8SoNFm21RtWREIspp47h0Ot2S/62Nrz+f3Sm5b1YJ2w/FRtbZuNfun3G0fgaQUrbhdJ09uWKbLbAaRqNgC1OBAh67ejzx+coq1DhtOlxuyfQ3y9iwN3bb3IUbbf5OF0MCC2EGvl0fhzjc8kCpWc2KJjElFWrYy0C8peejxW7W7oy662MtqCo8Ors8bKVSuFi1zdYZ8ErS2QSk5A9kgNMGoGOuo9EmxuGSYW+fukagOWws5qwIX98fDqSEpz8pZ35+7DWcVXaZYnPUbRiqcwZYXhA9A5A/jpeFt63r1U4X94ibZQW2mG4/X/6qgq9WxU/W2H3U4R8bUMMw5Hu1UsoUoJf3eNFGaytigB1hCjtpJoU+HeObF0BVYe6a2AzQv7428/7i+Fo2f9hct2HI/9saRLVeQELJvhOudrEgZvuh8AWeKxPgVvXFSkvUVdAfLanize/NDd8YZSzebPM35nWprt0A1GQAH2cUlrr2xaoG35YD4TPAFf2TSE+O7zpQXOFmWUH0hMG5ayz8PQHubABHil2tVBWvU4/Arxqb/1v1rQ3rdjtjtkDtO+7iaHF466tBJ7i1ATVqLBAtYXDRJhtPflQekSIsWjhS7Drod+j72BXwlWzzpRb7fqM1kxhiydbwpd8JI5Lj7lv34y57o2P8lm618fA7ZagJ9mdZtdPuP/XWZAA8wp83xYh9w57YpoBZtDH8va9eJ3jihoyY5ASsC1J6oo8ixbrddh56u6xJmLMX5lv9HUIGSCkNcJoB/AxA6h5HjPP/bT7gYMfh8FWfvTvomTIqptlpamHuGktE0UcFBx1M/U9pzCKXwsWWA448KfGuaQaqi3PWYoCCnxwl8SDos2WRra83X5oScVBJJDhVpbIgzBlr7zEnd88sxWJvGoMP4FbRllepu/1ODYUgDLB4iz0um+7vNlg5GWEK1ofGpzNhRPyY4PMwhMHDRS4mv1ZChaVpOLH6Y9P+2oYhRUrZEvDtE5cX1HAmjBnsTsnMbyLbEwsBD4xP58Hx6eji4G27+YCDXSF4JhWWu5n8agklFU1v8AEWbbT5b6WGSSmFgl8KWKebg0VxLNX69Y+WRsX0XzcimfemZ8clb/AXDQiDZZWeQNJIYgjjhWUFtQxDnRT8vEUPFbqOxJMgVYWnPz7VqC1SXisds6fn8Jcbm9E2N3bbxG9/tFBlC76mV1pV7nqthIOFTbveQJVNptodcr/fqSE19v87jzrj/gu2HHAwu5Gh3oqAqy5I4vNHcnl1chajB5mi7kdgsUvmra89C9gckj/OKg1piWgKKDar/kL+QC3gi/o9VuJKSGrOWd+aGdjV0OipXAgY3M3gSyp9pNjFriMuTpa7KTG7kRK++dFK0anIpuk5KyyM84v2dbol094oZVMTi1uoD6Vm1dEqyzfMbbWAz2MkO1WbkAXM4ZLcN6uU2dOyyY1iqrjW2VpaZ9dcFrYecETMAHuOOtlywMF57fW43JIH3ihj9Y7YO49EE81SFf+vrJkC+KaEPp10CcuDXnTKzfQ3yyJyGwsHJmPjlobPV1hQJTz+XjnLCuJa6T0qyM1QmvsdHlOAtd6jds213Yz60CpNxAIFBx3cPbMkpgqUpEambJm/0cpjs8v4bkPTiVcMFee10+/Sa4T/Nn+TAnzhPRKQ+cC4jB/jT9pp5O/1qFDDjcANFaZGZu5yOCXz1p95gw/w1C0Z5QGnPlbwFCPe5T0zepBxQF5rXVQDQsPFut12fvticUzcss7UXMSNxYThyWtaZWn9i0l9IITYqwgh3MDv8RQbQgiRPHtatkhNUhLjvVCN3Ued3PS3oqhL2CZ9glN6JwCdW+sOTB+f7l+A+iQwFaptAUKIFcA071W9RnSYMyN3r6KQULVWqdkTLvW3z0/hCBKLFwkiCU87k5FsFOZ3pmbL6vAw8OQOmuAtNu37HIQQ/wTe9B5npyv9nv9ts+VxpTYIVOnxpbvh+SI27Gn8luuXtAQoAvWzGbk7Dboagt99QoglvnsC2kwBfELgRb2TRk66KGU1TQD7jru4/Z8l3PPvUvYcjVzr9ktigBdvz1rWPEMzwO/Ue0KIV/3vqcEA1aHDv4bTmSXuvzbtvG5tdP4BhgnFym02Jj5XxO9eLmbhRmvYwaPGXwgDjB2atHZ4T181UYB84I7A+4K+DSnlYOAHPJ4juFWOXPbIcVOZWcbUVzAStGim4cLzjIzsZaRfnqHBIJLVO+xM+VdcfF4Shs6ttPs/fDA3RwiflrcQ6C+EqGXsq/NzkFLeCcz0HpdUqPmXP3qid6KLRdcHk0HQ7Vwd3dvq6dJaR4tmnsrhuRkaDNXl3Tbvd/Dbl6Ibh9+UkG7SlH//TPNTOo3Px8MJXCqEWBbs/nrnQynlLOB27/GKAtvSP84qbTLl4s+iJhSB+u2TzfNz0jX9/U7fKYSYVWebBvqcAvh2AsN6GkfccFHKqkbSeRYxwj//kLk8YPDfqW/woQEGEEI4gesA79oh7huT1rdvR/2OxpF6FtHGxJEpywd3M47wO7UauLOhdg2qxaqrTo0HvJvwpFn3ZKVlpio/b0nqDELPdvrd08elnc/pJf0EMF4I0aDiJCS9qBBiDX6ygEYRrT59OPcnjULT9oH6BSA9WSl7496sJMDrqeLEM/gh5XcIWTEuhJgNvOY9bpainP/qHzJX1tOk0Vj8XAu+fqJ5wzdGGc0zNGx4pSXP/67J7XprQKPg+vyR3J90GuGfy3lytWo/JIRrGbkPWOI9uKCrceTtV6QmXF38S8W/p+SsbJai9PE79aoQ4o1w+giLAaqFwnHAAe+5O65MHdA/T789nH7OovG45VcpK8/P0/lvyVcB94fbT9i2USFECTAW8HoOGWdOyc7ISlN+vtqVJobz2ut33j06ra/fqcPAtUKIsG3nETnSCyE2SinvAN4DUBRafj4jd+uvZhSmhVtaThEw8cJkxg5NpmWWhrJKlUUbbcz8pqLedue113PjJSn06aAnzSQor1JZt9vBG9+Za/jnd2mt48MHc/h6rYV3F1ZyzzVp9OmoR6cRbD/k5N/fmsO2Ml7eP4nrhieT10qHVoHDxW7mrbfwweIqn9m627k63n8gh2UFNu6bVVqrDyHgv483JztN4fJHCkMOJctOU4revDc7jdP1HG3AWK95N1xE7B0hhHgfeNl7nGpSes28K3NNuP38aUIG949JR6cVfLSkinnrrIzoZeDVyVl1hoJfO8TEm/dl07u9nqVbbby7sJL1ux1c0sfI+w/kBK1D3Dpby9tTs9HrBB/+UMW89VZ6tNUxc0oWI8IoYXPftWk8fXMzWmdrmbvGwodLPHGDU0al8a8pWb5QtR2HnWz7ycmw7sagRbEHdTXQKkvDgnxryIOv1SjOTx7OPaYotPQ7fZcQYl3IPyAAjXWPmQZ87z3o28kw4g9Xhy4U9sszMGaoid1HnUx45iT//G8Fr8ytYMKzRRjqyCzevoWWh65LZ/V2G1c/XshTH5Xzr6/NzHi3jBueL0JKeGRSeq12fTrqmbPCwuRXS/jPPDNPfVTO71/2rFqPXp+BXtewlfD8TnpuuDiFI8Uuxj9zkhfmnOKVuRVMeu4kK7fb6dtRX6NY5GfLq1AU+PWQ2sU7xw717NrCqTT++h+brc5IVnr7nXpJCPFWyB0EQaMYoNqd7HrAF270+8tSBw3tbtwSSvvRAz1pCGZ9a67hBGpzSP5VR+Do+OHJaDWC2YuqSDUJstIU359nGbDTqaWuVlFKs1WtlaBp+yEn3623kpmqMLxHw0HR1wzyDOTr31XWyHfoVuGlL08hJVwz+PRgf1/9dV8z2FRjNstO0zCil9EXZxAKfvt/qSvPa2/w1/QtBh4IqXE9aHQwnRCiVEo5Bk8W6mRA9/KdmS1G/bnwxIlSd4v62nZp7QlDyA+SKnXj3uDr8nntPdP7rHvqT2Kanaap4VS664gzqLt5/j47V12QRJfWOhZtqt/P30tvMJnhwAkXxRVuWmVpSE1SMFtVHE7J3DUWbrg4hWHdjb44gl8PNqFRQv/6L+hiLLhrVKq/jv8nYKIQotGKuKhEUwohNkspbwLmAEIR5H78YE7BZTMKm9ldss5PKyVJwa0SdA202GVQ13BvtrD7Xy+t108wMFCzrpBt7/mUEApZeO+pq6/iCpWcdA0pSQJztef4nBUWfnNRCmOGmlhWYEMRniXB6pB8u65hBsjJ0Jx8bXJmFtW+GYAVj9BX1GDjEBC1cFohxBdSyr8B0wFSTUrPd6Zlr5j0XNGwutpUWlXOydSQZlJqMYHJIEjSCwId2SutKqDhRJmbnWGkmclKCz7A3vOefuuH99lZaUpQl/VsX1+nGfNwkYu1u+wM7W6keTONb3n6alXd0cZeaDWK85OHck4oCv41G34nhNjQILEhIto+0g8B87wHnVvpht0zOi2oIwLgi6g9v1Ntqf38TsEnDm817yv6h5fGqEtrXVB/wH7Vzwklutd7T7+82rS1zdWSnabhaIkbcwAzeYXBawebGDvUIyN8vrLhrCNv3Zu1Jj1Z8R/8F4QQHzXYMAxElQGEECrwG8BXvfrmX6UMHtHTuDnY/f9b65kn77gytUbIllEv+EMdpeU/WVqFW4WJI5MZ0Ln2QJgMImhljtQkhd9dVrPP7m10XNYviVKzyvJtDesC/ludPva2y1NqJK7UKDB1TJpnb7+69rS+rMBGYZmbscOSGd7DyI7DzgbrA9zz67RlPdrphvudWgg83CCRYSLqGRWEEGVSytHAGiAN0P399syWox8/efx4mesc/3vX77Hz5SoL1w4x8emMXBZvsiIlXNw7iZOnan9J4PEOfvqjcmZMymDmlCzW7LSz64gTjQLtmmsZ0NnAoSIXCwIycW/c52DcMBM92urYvN9BToaGy/slIYAnPywPKZtX/l4H7y+u5IaLU5gzI5eFG63YnZKhPYx0aKFl4z4HsxfWznWgqp7Us3+42sOADeUcGtTFsPXmS1L8o3gOApOiIfQFIiZhMkKIHcDNVBcJUQQ5n83IOWXQiVpBdc98XM6LX1TgdEkmjEzmsn5JLN1q456ZJXVmDvnvGgs3vlDEt+usdGih5YaLk7lmsImWWVq+XmvhhTm1g5qOFru49cVibA7JxJHJXN4vie2HnNz5aklYUb4vfVnBI++WcbjYxdUDTUwYmYyU8Nr/Kpj8WgnOOnICzq2uRGKxS76rJ7awebq28JXJmbmcFvoqgdFCiJio2mPqIy2lfAqY4T3ed8y18rpnT9Zbzz7a8FcFP/5+oEgZP4zsZeTF2zOZs7yKZz8NHnWn1wvbwmda7Es2CG/ZXolnu/dprOiKdaDcY8DX3oOOLbVDp42pWyj8uUIIuOmSFKSET5fXPf2/dW/OOr/BB3g2loMPMZAB/CGEUKWU1+ORB7oDTLooZciGvY5NP2yx9am/9ZmP7m10DO1hpFdbHX066pm33sq+48GX8Wlj05Z2O1frb96dj+cDiiliHiorhDADYwDvvKd94bbMNm1yNYdj/exEo1c7PXdemcp5HfR886OVZz8JvgQN7m7cMunCFP/avnvwBHDGPDg3bnFS1TuDL6lmOptD7rrkTyfOtTlkbUvJLwitsjTHvnq8uV4ReEv0VgKDhBDb4vH8uAXLCyHmAk96j4160eW9aTmb4vX8pgi9Xtg++lNuud/gS+DWeA0+xJEBqvEEHnsBAB3O0Q7504T0pXGmocngnanZ65MNorvfqb8IIebU2SAGiCsDCCEkcCvg4/Bxw5KHXTHAtD6edDQFPDyx2ZIurXT+dpK5wF/iTUfc86UIISrxCIVeiUjz5E0ZHdrlag/Fm5ZE4dLzk/LHDk3yH/ydwI3VqvS4IiEJc4QQu4EJVCcuFpD52Yxc7S+BCUb0NG5+7pZmXTi9BTfjMe/W7wQZIyQ0W4KU8mHgad8xlL4+z7z9P/PMQ2NVtSxRMOiE9Zlbm629sJdxCOA1f6rANUKIr+tpGlMkmgEE8Ame2EMf3Ko8tmG3Y8+6PQ7tkRKXUVXPTGYw6oW7fa7GNriHUXRuqeslBIHOio8KIZ5KCHHVSPiLlVLqgc+A0YmmJc74uxBiWsO3xRYJT5pXHcxwHfAM1bkKf+YoBW5rCoMPTWAG8IeUshNwE3AV0B5olliKogKJJ1x7N560vB/GyrQbCf4f5gP1EW2AaKQAAAAASUVORK5CYII=;" vertex="1" parent="1">
                    <mxGeometry x="496.32" y="388" width="36.13" height="35" as="geometry"/>
                </mxCell>
                <mxCell id="83" value="" style="edgeStyle=segmentEdgeStyle;endArrow=classic;html=1;curved=0;rounded=0;endSize=8;startSize=8;entryX=0;entryY=0.5;entryDx=0;entryDy=0;" edge="1" parent="1" target="69">
                    <mxGeometry width="50" height="50" relative="1" as="geometry">
                        <mxPoint x="30" y="190" as="sourcePoint"/>
                        <mxPoint x="400" y="300" as="targetPoint"/>
                        <Array as="points">
                            <mxPoint x="30" y="405"/>
                        </Array>
                    </mxGeometry>
                </mxCell>
                <mxCell id="80" value="" style="shape=image;verticalLabelPosition=bottom;labelBackgroundColor=default;verticalAlign=top;aspect=fixed;imageAspect=0;image=data:image/png,iVBORw0KGgoAAAANSUhEUgAAAIAAAAB8CAYAAAChbripAAAABmJLR0QA/wD/AP+gvaeTAAAcMklEQVR4nO1dZ2AU1dp+zmxL2SSbTQMCglICiErvoF716r0CKoIUsaJYQAUNCMSL2EDFgqIXUUBEryJFvXwIXgEFAQUxkAQioYQuEEg2ZZNsn/f7sZnNZJPtM7sL+vzKmXLOm5l3zzznbQf4E4GIGBHdQEQfE1EREdUSUQkRFRDRXCK6OtIy/gUZQEQcEQ0lot3kG9uJaGikZf4LEoCIVER0LxEd8OPFuyOXiEYSEYv0/yEnLsl/jojiADwEIBtAK7fT5tMX7Hu3FZrtR886NIlxnK1VGme/oWusPiGOuxIA53Z9PoC5AFYxxnj5pQ8vLikFIKIkABMBPAUgvcE5wLBxj2nfayurrqmoceiaur91huLUC+P0x69qo+oNQON2+hCA1wB8xhizyiB+RHBJKAARpQKYBOBJAMniczyhdHOeqfDlLyq7VZv4RH/6S0nkSqeOSCq8sWtsN8bgfs85APMBLGCM1UohfyRxUSsAEWUAmALgCQBx4nMOHqdXb6s++s5/jb0sNooNpv+keM44bWRSwc09YjszN8UCUArgfQDvMMbKg+k/GnBRKgARXQ5gMoAJAGLE56wOnFy+0Xjmww3Gng4eSinGi9ewmolDE3JHDtJ24Dg0czttBPAxgFcZY2elGC+cuKgUgIiuAjAVwBig4cs1W+ngko3Vpcu+N/bleSjkGF+lZNZ7btTunnBLQqZKgTZupy0APgHwMmPslBzjy4GLQgGIqBuAGQBGwE1mYy2/762vq8z/t6u2J1F4/h+Ogb9rsHbXk7clpGtUrK3baSuALwG8whg7GA55QkFUKwARDQTwLIAh7ucqavjClz6vwJYC85Xhl8wJjoEf0icuN3tEUly8hrnLwQNYD2A2Yyw3AuL5hahTgDrDyxAAMwH0dTvNn6tw5M76pFybe8TaKfzSeUb/TjH7csYmmZvpFL2aOL0JwCzG2C/hlssXokYBiIgDcCuA2QC6u522FZ+1/5rzSXnzw3/Yrgi7cAGgXyfNvufG6szNdIqeaPx8dwB4jTH2fxEQrUlEXAGISA1gNIAcAB3cTlsO/WHfO/1jQ+sTJfbm4ZcueHRpoz40a6zuQtvmyr5AI1KaB+BtOI1KEbUuRkwBiCge9ebalg3PoSb3iCX3X8srOp6vcKQ32cFFgsvSFadyRuuO9Wyv6YPG1sX9AOYB+JwxZg+/dBFQACJKBPAAgOlAwzU1T2TYnGfeN3dF1TWVtU2bay9WZKYozsy6W3ekZ3tNT7gZrQAch9O6uIgxZg6nXGFTACJKQ72dvsHL5QkXvt9jOjRnRUW3GjO5P5xLCvoErmzayKT9N3aN7coYktxOlwD4AMBbjLGqcMgjuwIQUWsAT8M53buba0+t3lZ9bP5aY2+rlWKa7OASRbyGVU8cmrBn5GBtR47B/TMnmJnfZYwZ5JRDNgUgorZwOmcegdu3z2KlI4s3Vpd88r2xj1Tm2osVcRquZtJQbe7IQdr2HAd3olsNYCmcK4czcowvuQLUhVVlAxgLN/ZrtlLRRxuqq5ZvNvbiw2S1Cyc4DuCD5PSCmfnhW7Qt1Ap2udtpC4CVAF5kjB0JUcwGkOwlENEAOIndre79CubatTtrmzKSXDKYckcitu4zY8+R4MMFBOvi1BFJ2jgNczd22QCsADCXMXYgFFkFhKwA3sy1Fyrt+c9/WqncddASMXNtODF7nA4394jFKysqsW5XaKECjIGG9on77ek7EmMT4rgubqcFM/OLjLHdIY0T7I1E1BnAQgCD3U45TpXad+Qsq0gtPGHtHIpwFxtmj9NhaB8nz12xtQZvrqkET6H3e/01sfunj0riUxM496hlAvAfAM8wxs4H03dQCkBEw+D8JonJnbXotO2X55aVX3asxO7+DftTQKwAALCj0IwZy8pRY5ZACwD0aK8+NGuMrqZlmrIrGr67cwBuYIz9HmifASsAEQ0GsBGAWjj2R5lj56MLyi47U2ZvEWh/lxLcFQAAjpyxYcoiA84YHJKNc80V6qIFj6c43DyQ5wF0C3S14B4B6xVEFAtgMepfPi3fXPPTsNklff/sL98T2rVQ4dOpaejeTu37Yj+Rf9Ta8bqpZzvtO27ZJjqcDmBBoH0FpAAARgFoLzTW/mL66Z1vKt05wF9wg07L4f2JKRjSRzojJ0/gHnirbODJ83axi3k4EQVEuANVgNHCHzUWKnxpRfnAAO//00KtZHhhnA5TRySBk2jxTQQ2fn5pBwLE1sKxgfThtwLUuW1dv/b31xqr5Iq9u5Qx+tp4zH9Ej/gYabTAYORTdhVZ9okO3RjI/YHMAN0BCOHVtd/8UtM1kIH+Qj0GXBmDJZNT0Vwvze9nyXfVYl9Ct7rMKL8QiAK4pvvyav5gsLH2f8GJ9pkqfCYROcw7askiguA9VAHw2+IaiCOmv2vAYmulr4tfH6/HDV2Dd/CZrYQH3irFoT9sQfcRCFISOSx4LAXamEBpUT2SEwK7V6fl8P7jKXjx8wps+M0U9Lg8gSur4g+nJnE96g4NALDVn3sDUYB+wh+b80wJAdwXFGLUDG9N0GPcvAuoqJY3akqpYHj1AT2yWqpkHacpqFUML9+XjC5t1CFZDvcUW6v/3t31gxvg731+qSwRtUN99A6//YClvbfrpUJzvQJz70+GIvgfpV+YOiJR0nV6MBh9bTzeDoEcbtxjEgeX9K8LsvUJfx+tS6MsVio21viXZCkFemdp8MQw+YYb0jsOIwbGy9Z/IBgYAjncWWRpD0CIK9QB8CtsPmAFOHTGHvb8t3tu0OLmHtJzzi5t1MgZ4x6VFVkI5LBb28BmpFoLH2+ykDhWwK/PgL8K4CKAWwpMEVn7P3+3Dp1aSfeN1idweH18MtTK6ItL0Wk5/HtSCob0DsxyeOCUVewRlEYBiKjBdPJDvumygKSSCBoVw7yH9NBpQycESgXDqw/qkaGLXjuWWsnwwj2BWQ5/LLCIfyGSzQD9het4wvmT5x3uJVfChuZ6BebclwwuRB3IvjMRPSJM+vzFsL5xaJ/p38z3Q55JnDXVlojcU9kbwZ9H6dKkP0rtR/2SREb06RgaKby1dyxGDooO0ucLJRUOPPxOKQ6e9s8Wcq7ckeHgSewO7ufx4joEpAC7iiwWvySRGfcGSQo7tlIhZ/TFkW+Sf8yKca9fQNGpwAxhpy44jouaPj8DXhWAiBqYFTfmWVIDkkZGBEoK9Qkc3pqgh0YVfaTPHd/lmvDogjIYjIEbwHb8bhGnmIWmAAC6oT6Zw5R/NDwGIH8QCCm8GEgfABABH24wImdZOay24EyCG/eYxN/9Hr4cQ76enmv5V1HDH7LZKaqYk7+WwmeGRz/pq7UQshcbsGi9MaR+Ck9a27k5hnp4u96XArimkPxjtqishNU7S4NJXkghY5DM7SoXzhgceOCtUmwpCD0vlOfBGYy83wYhX84gkQPIHBB1/ug7I9Zsr/F5XefWKkwaGpqp956/aVF0yob/5Tb2qBEBzy2vwPLsVLRODy4LbdNeEw74QcZu7BYbsLEqr9iK7MUGlEvo8NpTbDHe1M1FkoNTgLpSbJlCc/t+U7tAhDjspxt310ELmiUrQrLHM+YkhSfO25tkzdUmHlMWGbA8OxXa2MCMCL8dtmDmsnI4/Hg/bTKUASnAd7kmvPCfiqC/956waa85UawARMR5KkTh7WnUO4BsVFxZw7sXSpQM81ZXhZROBThJ4RteSOGJ83Y8/1kFKIBnfa7cgelL/Xv5gUAKsucNPxeas1DvGEoGkOXpWm8K4CKAxWfldQDZHYRnlxpQUhFa7LwvUrilwIwl3/tHsqw2wlSJp2ZAOrLndQwrxZksVCw65PEz4NcMsGWfWfbFs8HI49kl5bDaQ/tF+CKFi741Ytt+32Rr7spK/H5S2mikkgoHHpovDdnzhaJT1hJRs7+n65pUgLoyLq748h/yTGGx/+87bsUrK3xGm/mEN0shT8DMZeU4ds5zSZ4vttRg7U5p60ALlj1/zbqhYkuBRczvAp4B+qEut58nlB47Z28toWxesW5XLdbs8L168IXn79ahowdCVmshPPORAdWmxtN7/lEr3vlG2uosoVj2gsWP+8xix1B7Imqy2JYnBXBpzFmDvdjDNbLh9VVV2FscflJYUu5A9mIDbA5piJncZM8b/ii1N+N5CI4hBg+OIZ8K8GuRLfhw1SAhkMLzEpFCT+7jLQVmLK0jhVYbYeoSg2S/0nCQPV84VWo/IWo2+Rlo9GiISAGgt9DeuLc2Ig6gsioe06QihV4MTR98a8T2QjNeXVmJwhPSfJ/DSfa84edCi/gf8k8BAFwDQFv3tyWv2BoxB9C+41bMWy0NKfx7d8+kcOricvxXItKXV2zF3a+Fj+x5w8Y8U4ao2YOocSW2phTApSnGWjposZN7dcuw4qsdtfhqR8jlVjDrbp3HyJpQZxkBG/ea8dh7ZZLbDoLFvuPWdkSormtq0IRjyKsC5B+1RIUD6LVVlSGTwlg1w9sTpIkp9IQdhWbJlEkK8DwUhhr+sOhQo89AU0/DZTTYnG+Oivw/KUnhHC+k8FLE3iMW8ZrWuwIQ0WWo32ePthea3XfDiBikIoV9fJDCSw2b9prFaXz93TfCdP8tuDTE6qBjBiOfIqdwgUJKS6EnUnip4edCcwcAwtSZCreS/O4KUO8AOmP/Q17RgsO6XdKQwtnjPFsKLyXUWEhrtnp2DHmcAbbtl98BFCykIIVSJppEOw79YT0najZwDLn+eyLSArhKaG/ea8pElMLuIMz4uBylVaGRwhZ6BV6RINFEQJ+OGtkzmYPBj/meHUNicfuiLkKIgLLic/Y28ovmG54e6IVKB6YtLg/Zbt+3owYTh0hDCv/RMxbvPZ6CxLjo0oIf8s1iZ15W3d4NABoqgEszSgz24nDtwecNHVupsGRKKmLUTYuSf8yKeatCJ4X33SgdKeydpcHy7FRc3ix6quCfLrVn8jyEoB4G0W5sYgVwfRt2H7JFfFNkIZHjqjZq/GuM52yeNRJZCqUkha3SlPjkmTQMvDJ69sA4XWo/Lmq6fuwc4NqyrY9w8H97TfqwSdYE3BM5bukZi3F/03q8PhpJYXyM0/J4/02e5Q4nfi6yiB9QQwWAk/wJlRIsuYcjmwH0dBOJHE/dloh+nZp2S0hlKWwhsaWQ44AnhiUiZ7QOSkVkv6ib9pjEASG9iJw+HuFfFTmA+MPWCJaAu7V3LEYNbhwiznHAnPuTkZnadJJHWRWPZ5dKYymUihQKGD4gDh88kYLkCC45C45Z2xNBCLXSoG5zzkYKsP+EtSzMsrmQ1dJ79m5iHIc3HtJ7JIUFx6x4c03o4VxSkkIB3dqq8fHTkSOHDh7Kihr+kOjQAKAJBfihwBIR929SPId5D/nO3u2QqfJKCldvr8HXP0cXKRQQaXKYd7SxY4gjohYAXOvEbfsbBBOGBQoOmDc+GZkp/uXw3dIzFndf75lcvbqyEnlRRgoFRJIcbt5rFg86kIgYB1EJWJsDxy9EYKvWKXckoUf7wCaeybd7J4XTopAUCogUOfxpfyPHUDslRNGiJ0vspwG0kWKwzFQFEv3Iw7vmCjXGXBd4XiDHAS/fm4xx8y7gbBO7cZRV8Zj+cTkWPZkCVQgPuU+WBrPG6lBwzPeMEmjy6fABcWiZqsCzS8tRVSt/FFGNmRIsVjqsUTNhldefEdHPqFOCb3ebtsxaXn6dFIOFWivYXxSdsuHBt0th8RB2PWJQPGbcFV21AN1x4rwdUxYZcOK8/PtHr52dsTMzRSFYAhdyAFxZv2fK7NGdSN8EzFbymry5elvopFButE5X4tOp4SGHBiMvnspacwBcESOpCUrpdjYKA86VOzB1iQF2Hw4hKUih3AgXOUxO4MRLm2QOgGvd37Wd6qKJkLDaCNP8TOQQSOGFyujW73CQw3QdJw4VP8MB2CW02mQoO8WoWXTPl3WYG2AihxBTKFXal5yQy3J4dRv1QbWCiZf5eRyAr4QWA/TTRuh+lXRUGRBs9m7BMSvekMBSGA7IYTl8+X5dhduhFRycmxEfFI4M6xvTq31LVdgTQv1F7hEr5oeQvbt6W41kWUByo1WaEkunpKKDn6VivWHUoPidmSnKPqJD/2GMHeEYYw4AD8G5MzUYY/HLs1NZQiwXeqSFxCgpd2D6Ut+kzxfmrIh+Uihg014zis+GlmbWoaXq2NSRSeINqM8DeBqo8wUwxrYDyBbOqhXsitU56Uc4DlHDmqTM3nW6j8ujmhQ6eGecwysrKkKqURQfw4zLnk4lxlz5nnYAo4TNpl0sgzH2LoAlQjs1ievx+oPJ2xAlkDJ7FwBKqxxRSwqrank8/l4ZVv4UWqEMjoFflZNepFE1IH5TGGNbXNe43TMJgIsEXn9N7LVjrtf+gghjxVZ5vttSuY+lxInzdtz/Zil+Oxx6Xe63JqT8lKFTiLeQ+5Qx9p74mgYKwBgzA7gdqK8s8cwdiVd3ukwlTjAMK/KPWjH/a/le0qptNfgmSiyFvxyw4L43SiUxCd85IHbXoC6aa0WH9gB4xP26RgtNxthZACMAWJxtxH/yTFpscgIzuF8rN6Qu2eIJr62qROGJyJLCr3bU4qkPymBsom5RoOiQqTw6Y1RyZ8AV2V0C4DbGWKNqLx7NTUT0KICFQrusit9zy7/OXePvfsGhOoOsNsL4+aWSl2rzhAydAu88qkecJrSNI+M0gVnwbA7CqysrJZuFkuIUFf+bk1GpUrhiPGwAbmSM/dTU9V6lJaJFACYI7e37zVufWmS41sstLsSqGVQhbMhkdxBqLdFH0Lxh9jgdhgawRXxlDY+piw3IDbFKqgCOgV//UsaetCRFT9HhRxljizzd48vMNAnODaMGAcDALjGDx12v/fmzH6s9Fh4UYLISTNaL6wWGEycv2DH5A2ldwO8+pt+WlqQQ/0CXeXv5gI9y8YwxG4C7AJwWDk0ZntitW1v1gdBE/XNjZ5EF986ThuwJGH2tdlu/TjGDRYd+AfCor/t8fvAYY+cAjEQdKQQQu+jJlER9Ahex6OGLGV/tqMWTC6UhewK6tFEfmjoisTvqP+nnAIxkjPlcS/rFeBhjOyHiAgqOZa6cmX5CwUH+EJZLBFJZ9tyRFM+VL56cEgtAiKuzwfny/arv4DflZYwtB/C+0E7Wct3fe0y/IxBhpUaGToHcBS3w+viIZrL5RFUtj4nvh27Zc4eCg33Nc+knVAomruX8eJ1p3y8EuuaZAmCL0OjdMebaCf9IiBpzcTTi5AWnZW/3Iel33PtgUtqOZC3XVXToPcbY4kD6CMjZzBizEdEIALsBXA4Aj/wzodeeI5bffzts7RxIX1LAYOQxfn4pKqKkLp87dhZZMH1puaTfewH336Td0b29Ssz4fwbwTKD9BGz1YIyVAbgTgGC5iFk4KVWXksiVBtpXqLA5CHnFVhwviT4qIgfZE3D15eqiJ4YldhMdOgXgDsZYwAaFoMJNGGN7iegRAJ8CAMehxZqc9H035ZQkhnNruQydAutfysDmPDOmLam3VGe1VOHzZ9Owblct/v2tEU/eloh+HTWIVTMcPmPHovVV2PF74ymZ44Cx12kxfEAcmusVKK/msXmvGQu/rcK6FzJQayEMeb6k0X1iOHjgzTWV+FLi772A1ETuwpLJqYmo38/RDOBOwb0bKIK2ezLGPgMwX2gnxHFXLZyo3xlsf3IgI1mBz6amoU26Ehv3mLD9dws6XabC/EdT0LVtYz19bowOU+5IBMeAz3+swfpfTRhwpQYLHkvxKzuossZJ9uR6+UoFZ/tyZvoZjkML0eGJjLHdQfcZokzZcFoKbwaAbu00gx8bkrBt4TrjoBD7lQS9Omiw+DsjPlhvdO0LMLRPHGaP0+Gev2mRV1w/a/TO0uC2vnE4cMqG8aJEkw+/M2LxUylIiOVQbfIeQPLuf6sk32BKjI+eSv5FF8+JjT1vM8aWhtJnSGGndeFkYwG4dhV/6OaEvgM6xxSE0q9UOGtwYNEGY4NNIb79tRa1FkLnyxrG2d3a25kOvmi9sUGWkdVG+Pc6/2r+y/nyH/x7wo6rL9eIX/4PAKaF2m/IcceMMQOA4YCr+IBq/qP6Zs30inNebgsLDp62gXd7KTw5K4y5V/Lq2NKpEPlHG/Oopo6FE72zYvZPHJogdvCcADCaMRYy+5Uk8Jwxlg/gXgAEABxD+opn00o1St+mSDnR1J5AAGB3oNE3PT6Gg4NHk0makXRspekU599/XJ8CZ1UPADDBSfouSNG/ZJkHjLGvALwhtBPiuC7LslODJifhRo2Zh4JDkzX+YtUMsR6qksgJpYKzfTk97RzHobno8HjGWK5UY0hdtGY6gA1Co0OmauCTwxKbDESINhw87ZxNu17ReHXQ1IohHFg6OWVnUjx3tejQPMbYF1KOIakC1O1PezcA1+7V992k7Te4S0y+lOPIgW9/ddq1JvwzoUGZGrWK4bFbEzzdJhuevD3xpyvbqMSrqU0AZko9juRlqxhj5QCGAfV72L85Qd+iebJS1u1nQ8Wugxas21WLTq1UWDUzHZNvT8RTtydi5Yw0WO2A0cSDDxMN6Jul2XffDVpxFs9xAGOkIH3ukKVuGWPsAID7UE8K01blpFVqVI2DEqMJL3xegXe+qYKDCKOvi8ctPWKxbb8FUxYZEKfhPJJKKZGRpCxZ8Lg+HfWkrxrAMMaYLKZ2WZkNEb0MIEdoF5+x77hr7nmv+9lHIwTT8ne5JuQsk28bJbWamTfNaVYcr2HCtr0E53JvpVxjyl25cBaAdUKjbQvlgOzh0UsK9QmNH0echuGZ4c7CkZv3yjuBLZ2ctlv08gFgrpwvHwjdFOwVjDGeiMYC2AmgMwCMuV7bP/eINe/HAnNX73eHHw/fkoBeHTTIPWKBwcgjLUmBAZ01SNcpsKXAjB9l3Agy+87ErZ1aKcXu3e/h/AHJirAsbokoC85CFEkAQIBh+EslNSfPO8KyK7m/GNQlBqMGx6NdCyV0Wg52B3C8xI4Nu01YsbVaNlNvv84xBe89pu8IQFhvHgbQmzHmns8vOcJm3SCiYQC+Rt1nx2ylgzfMONfKbCX/A+kvQWSmKM5883yGmmMQtuitBtCXMVYYjvHDVr2YMbYWwEtCO0bNsj7NTssL1/jRCLWamb+YkV4hevkE4IFwvXwgjApQhxcArBYaVzRX9p8xKmlrmGWIGix7OvW3eA0Th9K9yBhb7fEGGRBWBWCMEYAHALg0fMTA+IH/6BX3WzjliAbMHJ28JStTNVB0aC2AF8MtR9gL2DPGquF0HwsER/HSvbor2qQrT4Zblkjhxu6xe+4cECt++UUA7qkzpYcVEdnBgDF2CMAo1BUuZoB+VU668s+gBIO7xOS/en9yFuqX4EY43bsRqVQR0X1MiGgmgFdcbcDw0Qbj7x9uMA6Ihl3LpIRGxUxzHkjedd1VMf1Rv9zj4czbX+flVlkRaQVgAL6EM/fQBQdPZ3IPWQ/vPmxVni6zx/D8xakMMWrmuDxdYe53ZQzr0EJ1FWNwr1r9L8bYyxERrg4Rf7BEpAawCk4P4p8JbzLGsn1fJi8ivsVlXTLDXQDmoK5W4SUOA4CHo+HlA1EwA4hBRO3gjC28Fc7Us+TISiQJCM507UNwluX9XC7XbjD4f+pOESRDy3afAAAAAElFTkSuQmCC;" vertex="1" parent="1">
                    <mxGeometry x="338.21" y="385" width="41.29" height="40" as="geometry"/>
                </mxCell>
                <mxCell id="79" value="" style="shape=image;verticalLabelPosition=bottom;labelBackgroundColor=default;verticalAlign=top;aspect=fixed;imageAspect=0;image=data:image/png,iVBORw0KGgoAAAANSUhEUgAAAIAAAAB8CAYAAAChbripAAAABmJLR0QA/wD/AP+gvaeTAAAW0klEQVR4nO2deWBU1b3Hv787W5LJZF+AKIQl7DuENaA8sdYKtNUgS9VXbEUraJWCC1jaqpX67FNr9VlbRUSrorS11veohk12ZEsISAiEPYGQhZDJZPb7e3/M3MnNJJNkkpk7CdzPXzn33HvOb3J+95xzf79zfge4jmBmYuZbmPldZi5i5npmLmfmw8y8ipmHR1pGlTDAzAIzz2Tmfdw6O5h5ZqRlVgkBzKxj5vuY+VgbGt6fA8w8m5kp0r8jnFyTP46ZYwD8FMBSADf6ZdsuVLgObT9qc5266DbExQjOG1MF1y0jo5NMMcIQAILf/QUAVgH4lIjE8EuvLNeUAjBzPIBFAH4OIK1RHlCdd9Ba+OIntSNqLO6E5p7vla45/5t7ks4My9SNA2Dwyy4G8CKAD4jIEQbxI8I1oQDMnAJgMYBHASTK80RG5aZ869HnP7o6qs4qxrWlvOQ4oXJZbvzR6SOjRxHB/5lLAF4F8Eciqg+F/JGkSysAM6cDeBzAIwBi5HluERfWb6879Yd/mrPtTo5uT/nxRsH8xOz4w7eNiR5MfooFoBLAGwD+QERX2lN+Z6BLKgAz9wbwGICFAKLkeQ43zq3NM5f9eYN5rFuENhT1GQ1kWTTTdGD2lNj+goBuftlmAO8C+B0RXQxFfUrSpRSAmYcBWAZgHtC4cW0OPv5OXl3lmq/ME0QRmnDUr9OS497psfsWfteUodMg0y/bDuA9AM8T0flw1B8OuoQCMPMoAE8DyIWfzOZ6sfDlf9Ta/rW3fiyzMr9HIIh3T43d++j3TWkGHfX1y3YAWAfgt0R0XAl5OkKnVgBmzgHwJIAZ/nk1FvHocx/WYOth2xDlJfMgEMQZ42MOLM2NjzEayF8OEcD/Afg1ER2IgHhtotMpgNfwMgPAcgAT/LLFSzXuAyvfuxJ74KRjkPLSBWbSoKjCFfPjbd0SNNnNZG8EsJKIdistV2t0GgVgZgHAHQB+DWC0X7az5KLrmxXvXel+otTZR3HhgmDiIEPhM/MTbN0SNGPR9P+7E8CLRPSvCIjWLBFXAGbWA5gLYAWA/n7Z9uJS16Gn3q3udbbc1V156drP0Ex98cr5CRV9u2snAE0mpfkAXoHHqBRR62LEFICZjWgw197QOA+WAyftB365tmbg5Rp3WrMFdBF6pmnOr5ibcHpslmE8mloXjwB4CcCHRORSXroIKAAzxwFYAOApoPE3tchcvSnfVrjq49oRV+ubN9d2VTKSNWUrf5RwcmyWYSz8jFYAzsBjXXyLiGxKyqWYAjBzKhrs9I0aV2RUfHXQWvzCxzWjLDb2/+dcUySZhKonZscfmT4yeiQR4v2yywH8CcDLRFSrhDxhVwBm7gVgCTzdvb+59vz67XWnX/3cPM7h4KhmC7hGMRqobtFM08HZU2MHCgT/YU4yM79GRNXhlCNsCsDMfeFxzjwIv7HP7uCTb+fVlb/3lXl8qMy1XZUYg2BZPDP2wOwpsVmCAP+Jbh2A1fB8OZSFo/6QK4B3WdVSAPPhN/u1ObjoLxvqatduMmeLClntugqSmfmB78b20Guot1+2HcAnAJ4lopOhrDdkjcDMk+GZ2N3hX65krv18T31zRhIVGZJ1cVlufGyMgfyNXU4AHwNYRUTHQlFfhxWgJXNtxVVXwa/ev6rde9weMXNtV4UIPHN8zP4lP4yLNsUIQ/2yJTPzs0S0r0P1tPdBZh4M4E0AU/2y3OcrXTtXrKlJOXrWMbgjwql4mDYi+shTc+LFFJPgv2qZAfwVwC+I6HJ7ym6XAjDzLHjGJPnkzlF0wbn7mTVXep4ud/mPYSohYEyWvnjlvATLDanakWjcdpcA3EJE3wZbZtAKwMxTAeQB0EvXSqvcex76Y1XPsipXj2DLUwmeEX30RX98ONnt54G8DGBUsF8LQSkAM0fDs0o2S7q0dpNl+x8+u+o/DKiEGYEgrl6SvHNYpmGK7PLfieiuoMoJst45aGh8fL7buk1t/MggMoQFL1flnLvskruY72TmoCbcwSrAXOkPi52PPvfxlZwgn1cJIcygn7xa2Z8BubVwfjBltNkK53Xb+t72Nz4314Zr7V1b6dtdi1H9/B1syrKlwIqq2sh5dKvNYvLeIvvXEwYabvJemg6Pa71NBGOGHQ1AWl5d/9luy8ggng0L2f0NWJbr709RlpNlTlTVRnafyDv/rkubMND3Ioxi5pi27lkIZgjwdfdX6sTj7V1rrxJ68k/ZBzBD8h7qALTZ4hqMAkzyVVjiuBrEcyphRmQIVbXiCdmlyW19NhgFmCj9sSnfagriORUFOFjiqJMlQ6sAzNwPDat3xB3H7Fkt3a+iPHkHrfLJ0CTvIttWaWsP4NMou4NLzJa2bbJUUY49RfYsANK6wgQAbVo2H7QCFJe5utz+t+uBertotNpZvlagTcNAWxXANwHcetga0W9/lcAcO++QewRDowDM3Kg72Vxg7Rm8aCpKsOWwXSdLhqwHmCTdJzIun7vs9g+5otJJ2Jxvle+a6svM/lvZm9AWBfBpUmml61R7BFNRhktX3OlukeXu4IkBb/YSlALsLbLb2yOYinKcr3CfkSVbHQZaVABmbmRWzMu3p7RbMhVF2PmtXb7FrGMKAGAUGjZzWAtOqQagzk7eQat83B/jDZkXkNa8gb7PvxqLWOx08YiOCBdq/rajHl98Yw36OZ2WsPGFdF/a6WZMf7q8XTLU2ztX6MCj5xz9mFHrjW6mAzAGwPZA97emAL4upOC0s9NFwnK6GU4rB/2cXtd4JZxAhDpr52rI9iKKEKrN4snkOEGKsTAZLShAa0OAzAFkM4ZAPhUFOFhiN8uSLc4DAiqANxRbhpTcccTaLwSyqSjAxkM2ua9mckuOoZZ6gAYHkJNLrlpE/0CJKp2UXUdtA9DgGEoEMCDQvS0pgG8CWHJRdQB1JeodHGO1c4nsUsBhoE09wNZCm7qTt4tRdN4h/6yZFOi+ZhXAG8bFt758c75Vtf93MbYetsu/8ILuASbCu7dfZFSevuTqFULZVBRgS6FN7hjKYuZmg20FUgCfxlysdpUEuEelE1Na6eomipAcQ4QAjqFWFeCbImfwpjaVTsH5StdZWbLZYaCJAjCzBsA4KZ13qF51AHVRdh21O2XJZhWgOVPwCACx3r/t+SUORRxAGcka3D3ViBhDsNsVg0fjV4VAwIq5yoQlrKx148MtFpgVMD3n5VvT503zGXDHMHOUfxzC5hTApynmej5ud4X/LD0i4M3FKchIicxyQyLgzsnKhSfs10OHZW+HNfobAKDwjKMfM+qIEAtPMI8x8MQr9tHc69bgADplV8QBFG8UItb4kWBIT13rN4UAUYSm2tLyjqHmFMBnNNhUYFNk/991Z2VS8AcfOmmXRxxtogCNhgBm7omGc/Z4x1Gb/2kYirDzWzte/LQmrHWsXZqKBKNH/89XurDojaqw1vfWIynonqR8L7fxkM00faTvPZ7EzEREPh+6/xzApyEON5+uNosRic1vtYsorXSHtQ5RNgdzuRD2+lzu4NcthIJdR239AbjhMeylwBOS33eUjf8Q0OAAKnOVKiGgSnix2DnW5gjsGPJXAF/m9iOqA+haobjUcUmWbOQY8ikAM8cCGCalNx2yZkDlmmBLQWDHkLwHmADvnICBqpJLrszwi6aiBJsLbHJn3gDv2Q0AGiuATzPKq10lSp3BpxJ+LlS6MkQR0qIeguw0NrkC+MaGfcXOLn8oskpjLlS6zsiSvpddAHxHto2XLn55yJqkmGQqirCryC4PZdZYAeCZ/EkhRuwHTqg7gK41Nh60yheEZDOzAWhQAJkDSDzhUEPAXXMcPu3IYobFmzTAezhnEwU4ctYRXpuoSkRwi9DWWMRi2aXJQIMp2KcAmw/bQx57dfxAA8ZmBS5WqwH2n5ANUURYNLPlOFSrvzTD6mjevDq4pw7TRrTciRWXOqHVeD50bA5utb712y0or2neXHxjqhazJrTsTj5X4UZ5jcf+7HS1Xt+/99ej5GJoz5LMP2WvnTbc93+ZDOD3WmbuAcD3nbj9iC3k9v/sLAMWfCe29RuD4KOtdQEVYOCNOtwfZH05Q1rW+62HbQEVICNZE3R9Ewe1XF9xqTPkCrDpkC1WpgA5zEwCZCFgnW6cqejiR7WqBGbbEZ9jCPA4hvoJkK0WPVfuuhAJwVSUwWJjk93B8jA/kxp9/xeVOiNygLGKclSaRfkkf7wAwLfrt6zKdf2sy7pOqTaLcoNQLwGAL/Bzikkb3lURKhEn0STIFyQmCgB8XcLIfjplViuqRIy0BCFdliwTAOyVUpnp2kFR+radNKHS9RieqT+u15D8Mz9fAPB3KUVA0hO5Cd8oL5qKEjz/4wT/lbYfC/AcRuxbJDhrQlR21g06dUPoNcacKcY9Gcna8bJLfyWikwIRuQH8FJ6TqUFExrVLU8gULajHwlwj9L9Bd3rZ7Hj5AdSXASwBvM4gItoBYKmUq9dQn/Ur0k4KAtSvgi6OMYrMa5aksHd7GOCJHTRHOmzatyKIiF4D8I6UTokXxvzX/YkB48updH4EgvjpirQig67RxO9xItoqJfw3hiyGZ3HIOACYNiL6pnnTnLs/2lLXatTplnC4GPX20G6MEFsozulC6OtroUK3GPr6QrGR5OWFydvSEzQ3yy69T0Svy+9psvCTmbsD2A+ghycNy72/ryg7ds6prhLqQtw1OXrv8rmJ49DQxgcB5BBRo4AfTTaHEtFFALkA7J40jO/9IjU60UTh38+sEhL6Z2hPPT0ncTAaGr8cwPf9Gx8IECKGiHYDeExKawTcsO6p9DPqpLDzEx+jqVm7LE1D5DPxOwHcTUTNenoDhuMgoj8B+LOUTo4TRr/yQNKOkEqrElIEgrhuecpJnQbyjSCPENG2gM+0UuZiyCJN5wyNmnrPtNhdHZRTJUy89rOk7anxmrGyS2uI6K2WnmlRAYjICeBuAFL3QY/fGTdqVF/9sY6JqhJq5t4Uu33ioKipsku7ATzU2nOtRmQioksAZsM7KQQQ/dajyXFJJkFdPdxJGJqpL16WGzcaDZO+SwBmE1GrZzy1KSQXEe0BsFBKawTK+GR52lmNAHUFUYSJNwpX3n4sORqAFA7MCU/jtym+Q5tjshHRWgBvSOnEWGH06z9L2tnCIyphRiPA9bdn0s7qNCSP5fyw17TfJoINyvc4gK1SYtzAqJsW3m5SzcUR4k+LU3cmxgojZZdeJ6K3gykjKAXwTgpzAZyWrj34PVP22Cz9t8GUo9Jxfnxr7M7RWbqbZJd2AfhFsOUEHZaTiKoA3AVAWjkU9ebilITkOKEy2LJU2sfw3vqiR2bFjZJdOg/gh0TkCPRMINodBIKZ7wHwvpQ214uFt64oH+B0sb69ZXaEqUOjMO9mI/p21yHOSDDXM0qrXNh4yIYPNtdheG893l2Sgi0FNiwNEKXzs5Vp6JakwXeWl6O2viGM2LBMPe75DyNG9tUjwSigxiKipMyFf+yuR95BZWNpp8QJFRue6+YUBI+vBoANwFQi2tee8todmJeIPgDwqpQ2xQjD3lyUtKe95XWEWRNi8MqDSejbXYfNBVa882Ud8g5Z4XAyvj/Rs2fv8GkHzl52IWeoAfHGpj97RG89bkzVYluhvVHj5+YYsXpJCqYOjcL+Ew6syavD14U2xBsFzM5RLrwsAGg1gnPd8rQyWeMDwKL2Nj7Q+rmBrbEUnqPlbwOAUf0MU382w7T9zS/MUzpYblD8cFIMXG7GvBcvo6q2cRDm2OiGxv5ibz0WzYzDbWOi8ck2S6P7ZoyP8d0jkZWhw5Oz41FrEXH/K5U4e7nxV29qvLLbKP7y88TdCUZBbux5hYhWd6TMDoXm9i4nmw/At93op7eZJkweHHW4I+UGC8OzPkBsJgC3/EDI/91nhcjAjHGN31y9jnDr6ChUm0Xs/LYhmHZuTgwEAXhrg7lJ4wNAxVXlfGP3f8e0c3hvg7zxNwN4oqPldjg2OxFVA7gT8AUf0L36UFK3bkmaSy08FlK+3G+FXktYvyINT86Ox/RR0c2+neVX3NhXbMeQXjpkpjd0fjcPi4IpWsCG/fVwy5RoWKZnOrP7WGQPTR83IOrIopkmuY3/LIC5RNRhQ1xIgvMTUQGA++B5GSEQ0j5+MrXSoG3dFBkK1m2z4Jn3ruBchQu5U4x48f5E/Pv5dLy7JAUj+jSek0pd/MzxDb1AQ/ffeEJnivH8ey4H2BauBKkJmstvPJyUDE9UDwCwAriLiCpCUX7ITmcgor8D+L2UNsUIQ9csTWn35CRYNuy3YsHLlbj5iYtY/D9VWL/DgsE9dXj94WSkJzb0BpsLbKi3M27PjoZAQHKcgIkDDSgudaK41NmoTLN3MpiWEJktk1qN4Fz3VOolQUB32eWfENGBUNUR6uM5ngKwQUr0z9DlPDorLqAvOhxYbIzdx+xYte4qPthsQYyBkN2/IRiDzcHYeMiK9AQNsvsb8L1szzjv//YDQOEZz2d1a8EcwsXqx5L3xBsF+YEdLxHRR6GsI6QKQEQigB8BOCld+89bYydOHRpVEMp6/Bk/0NDkGBgAvnDwNr9IIv/yDgN3jIvBjHHRcIvAhv1Nd8R9ur0eogg8eLsJvdKafjClh7FnePQHcduGZOrkX1MbASwPdT1hiQbKzIMA7AEQBwAio2LWry67Ll5xdW/5yfax+Xfd4BaBAyfsKKt2gxkYmqnD2CwDSi66cO9LFbA7G5SACPjnr9KRniBAqyFsO2LD4281bxzKnWLEk7Pj4XIxvi604XylGwlGAUN66VBnFbHwtdB7xScMMBS+sTi5PxrG/TMAsoko5NbWsIWDZeYfwLPvkADAaueiW56+1MsehhB0uTlGTBxkQFYPHZLjBLjcjIvVbuQdsuGTbc0f0PTg90xYeLtn2dwT71RjU76tyT0SI/rocd8tsRjRRw9TNKHGIuJEqQuf7arHxvzQWgLT47XlXzybCkEgaRdvHYBJRFQY0oq8hDUeMDM/D2CFlC4pc+28e9XlFs+zv57R68m28YVuJUYDScf2Mjyfe5+Eq85wn9G2EsAXUqJvD+3kpXcqOynsSqx+LHWfrPEBYFU4Gx8IswJ4J4XzAfjcxfOmxU6aNjwqP5z1dkWW3hX39aAbtfJJ31fwvEBhJeynNBKRGR5LobTbWPvSA0k9e6Zpzoe77q7CxMFRh+fdHCvffncCng2cYbdAhf+YTgBEdBweS6EIeAJRfPRkWr0ajQTISNaUvfZQUg8AksmyDh7ffniPTfOiiAIAABF9DuA5KR2lpwHvL029rocCvZ5sHz2dViMQpPOZGcACIjqqlAyKKYCX3wBYLyX6dNdOenpO/NcKy9BpWLMkZb/RQINll54lovUBHwgDiiqA98DCBQB8Gp6bY8y5PTtmv5JydAaWz03cOiBDlyO79DmAZ5WWQ+keAERUB8+kUBrjNM/dl9AnM017TmlZIsX00dEH75ocLW/8IgD3er+aFEVxBQAAIioGMAfewMUEJH26Ik17PSjB1KFRBb/7ceIANKzGMsPj3q1t4bGwEdGTwZh5OYDf+tJA9V82mL/98wbz5Gvt1DKDjqwvLEjce/OwqElomPGL8Ozb/6KFR8NKpBWAAKyDZ++hD7fIZQeKHSf2nXBoL1S5okSxaypDlJ7cvdM0tolDoqh/D90wIt+5TBK/JKLnIyKcl4j/Y5lZD+BTALMiLYvC/DcRLW39tvASkTmAHO9mhrsBvABvrMJrnGoAD3SGxgc6QQ8gh5n7wWMxvANAbwCJkZUoJDA827WL4XGPfxgOv357+X/50/mr/d9BEwAAAABJRU5ErkJggg==;" vertex="1" parent="1">
                    <mxGeometry x="406.9" y="388" width="38.19" height="37" as="geometry"/>
                </mxCell>
                <mxCell id="84" value="argocd app sync" style="text;html=1;align=center;verticalAlign=middle;resizable=0;points=[];autosize=1;strokeColor=none;fillColor=none;" vertex="1" parent="1">
                    <mxGeometry x="170" y="225" width="110" height="30" as="geometry"/>
                </mxCell>
            </root>
        </mxGraphModel>
    </diagram>
</mxfile>